<!DOCTYPE svg PUBLIC "-//W3C//DTD SVG 20010904//EN" "http://www.w3.org/TR/2001/REC-SVG-20010904/DTD/svg10.dtd">
<svg version="1.0" xmlns="http://www.w3.org/2000/svg" width="190px" height="131px" viewBox="0 0 1900 1310" preserveAspectRatio="xMidYMid meet">
<g id="layer101" fill="#131b28" stroke="none">
 <path d="M215 1261 c-88 -4 -168 -11 -177 -15 -17 -8 -18 -40 -18 -475 0 -350 3 -470 12 -479 9 -9 84 -12 276 -12 l264 0 -6 -26 c-9 -34 -25 -162 -26 -197 l0 -27 313 2 312 3 3 100 c1 55 4 110 7 122 l5 23 343 2 342 3 3 476 c2 409 0 478 -13 489 -16 14 -1358 23 -1640 11z"/>
 </g>
<g id="layer102" fill="#324255" stroke="none">
 <path d="M215 1261 c-88 -4 -168 -11 -177 -15 -17 -8 -18 -40 -18 -475 0 -350 3 -470 12 -479 9 -9 84 -12 276 -12 l264 0 -6 -23 c-3 -12 -8 -47 -11 -77 l-5 -55 14 60 c7 33 22 116 31 185 10 69 21 129 25 133 4 5 50 0 101 -11 52 -11 139 -30 194 -41 263 -53 255 -51 254 -74 -1 -16 -2 -18 -6 -5 -5 20 -16 24 -98 37 -33 5 -121 22 -195 36 -74 15 -158 29 -186 32 -62 6 -54 25 -89 -197 -14 -91 -29 -176 -32 -190 l-6 -25 -8 25 -8 25 2 -25 c2 -22 6 -25 35 -22 18 2 32 -1 32 -7 0 -6 -16 -11 -35 -11 -19 0 -35 -5 -35 -10 0 -7 106 -9 313 -8 l312 3 3 100 c1 55 4 110 7 122 l5 23 343 2 342 3 3 476 c2 374 -1 479 -10 487 -14 11 -367 17 -762 13 -132 -1 -348 0 -480 2 -133 3 -313 2 -401 -2z m1090 -195 c22 -3 59 -5 83 -5 24 -1 42 -6 42 -12 0 -8 -16 -10 -50 -5 -40 5 -52 4 -56 -9 -3 -8 -10 -15 -15 -15 -4 0 -6 7 -3 15 11 26 -66 33 -120 10 -14 -6 -17 -5 -12 4 11 17 47 30 71 25 11 -2 38 -6 60 -8z m-717 -14 c3 -10 -2 -10 -23 0 -24 11 -29 10 -46 -11 -15 -19 -19 -20 -19 -6 0 13 -8 16 -37 14 -96 -5 -257 2 -243 11 23 15 362 8 368 -8z m197 9 c3 -6 -3 -10 -12 -10 -10 1 -29 -3 -43 -7 -23 -7 -24 -6 -11 9 15 18 56 23 66 8z m312 -16 c2 -11 0 -14 -3 -7 -8 17 -51 15 -58 -3 -3 -8 -16 -14 -28 -14 -17 1 -18 2 -5 6 9 2 17 8 17 13 0 12 -199 17 -211 6 -6 -6 -9 -6 -9 0 0 22 19 25 155 22 131 -3 140 -4 142 -23z m393 15 c0 -5 -7 -10 -15 -10 -8 0 -15 5 -15 10 0 6 7 10 15 10 8 0 15 -4 15 -10z m153 -4 c41 -7 42 -12 6 -30 -43 -21 -72 -22 -44 0 17 13 18 16 5 24 -15 10 -58 3 -74 -11 -7 -6 -36 12 -36 23 0 5 109 0 143 -6z m-994 -10 c12 -15 5 -46 -11 -46 -5 0 -6 9 -3 20 4 11 2 20 -4 20 -6 0 -11 5 -11 10 0 14 16 12 29 -4z m-349 -20 c0 -2 -11 -6 -25 -8 -14 -3 -25 -1 -25 3 0 5 11 9 25 9 14 0 25 -2 25 -4z m108 -3 c-10 -2 -26 -2 -35 0 -10 3 -2 5 17 5 19 0 27 -2 18 -5z m487 -3 c-3 -5 -12 -7 -20 -3 -8 3 -15 0 -15 -7 0 -6 -5 -8 -11 -4 -8 4 -7 9 2 15 19 12 52 11 44 -1z m196 -53 c-13 -13 -15 11 -4 40 7 16 8 15 11 -6 2 -13 -1 -28 -7 -34z m484 -303 c22 3 33 2 25 -1 -8 -3 -17 -10 -20 -14 -3 -4 -25 -3 -49 2 -37 8 -45 7 -57 -8 -11 -15 -13 -15 -14 -2 0 27 20 39 49 27 14 -5 44 -7 66 -4z m102 -9 c2 -6 -9 -10 -24 -9 -36 3 -35 2 -28 15 8 12 47 8 52 -6z m-712 -25 l20 -9 -20 0 c-11 0 -27 4 -35 9 -13 9 -13 10 0 9 8 0 24 -4 35 -9z m-90 -582 c6 -5 -37 -8 -112 -6 -79 3 -127 8 -135 16 -9 9 15 11 112 6 69 -4 130 -11 135 -16z m225 -2 c19 -1 -18 -3 -83 -4 -65 -1 -116 1 -114 6 5 6 114 6 197 -2z"/>
 </g>
<g id="layer103" fill="#1c5462" stroke="none">
 <path d="M48 1248 l-28 -10 0 -468 c0 -374 3 -470 13 -478 18 -15 547 -21 547 -7 1 28 31 219 35 224 5 4 72 -6 155 -23 14 -3 109 -22 212 -43 l187 -37 -1 -42 c-1 -60 -18 -81 -18 -23 0 52 19 43 -155 74 -44 8 -91 17 -105 20 -41 8 -194 35 -227 39 -30 3 -31 3 -42 -63 -7 -36 -14 -77 -17 -91 -2 -14 -10 -73 -17 -132 l-13 -108 30 -5 c17 -3 87 -7 156 -10 69 -2 141 -5 160 -7 19 -1 74 -1 122 0 99 2 92 -5 103 101 7 72 17 80 11 10 -2 -30 -4 -71 -5 -91 l-1 -38 -301 1 c-166 0 -304 -3 -307 -6 -3 -3 136 -4 309 -3 l314 3 3 100 c1 55 4 110 7 122 l5 23 343 2 342 3 3 474 c1 340 -1 478 -9 487 -9 12 -163 14 -898 13 -565 0 -896 -4 -913 -11z m659 -157 c11 -17 10 -18 -12 -7 -13 6 -21 14 -19 18 8 13 18 9 31 -11z m-274 -23 c74 5 150 -3 154 -15 3 -7 -2 -13 -11 -13 -9 0 -16 5 -16 10 0 17 -22 11 -40 -10 -13 -15 -19 -17 -23 -7 -4 10 -37 13 -146 13 -78 -1 -141 2 -141 6 0 15 82 25 155 19 28 -2 58 -3 68 -3z m588 -3 c16 -4 30 -2 34 4 9 15 45 -5 45 -26 0 -11 -3 -13 -13 -5 -10 8 -21 7 -43 -4 -16 -9 -37 -17 -48 -20 -18 -3 -18 -2 -1 16 16 18 14 19 -80 22 -53 2 -100 -1 -106 -6 -6 -6 -9 -4 -9 5 0 9 2 18 5 21 8 7 184 2 216 -7z m299 1 c14 -2 44 -5 68 -5 23 -1 42 -6 42 -12 0 -7 -19 -10 -52 -7 -49 3 -53 1 -56 -19 -2 -13 -8 -23 -13 -23 -6 0 -9 8 -7 18 1 9 -1 23 -5 30 -10 14 -83 16 -92 2 -3 -5 -13 -10 -21 -10 -11 0 -12 4 -5 19 9 15 20 18 63 15 29 -2 64 -6 78 -8z m-535 -5 c3 -6 -3 -10 -12 -10 -10 1 -28 -2 -40 -6 -24 -8 -33 9 -10 18 21 9 56 7 62 -2z m705 -1 c0 -5 -7 -10 -15 -10 -8 0 -15 5 -15 10 0 6 7 10 15 10 8 0 15 -4 15 -10z m188 -5 c12 -11 -26 -36 -64 -41 -39 -6 -39 -6 -15 11 18 14 20 19 10 26 -15 9 -58 2 -73 -12 -7 -7 -36 12 -36 24 0 6 172 -2 178 -8z m-1024 -11 c10 -27 7 -44 -10 -44 -11 0 -14 6 -9 20 4 11 2 20 -4 20 -6 0 -11 5 -11 10 0 16 27 11 34 -6z m-239 -14 c4 -6 -7 -10 -27 -9 -31 1 -32 1 -8 9 14 4 26 8 27 9 1 1 5 -3 8 -9z m485 -6 c0 -9 -42 -24 -51 -19 -14 9 21 34 38 28 7 -3 13 -7 13 -9z m-615 -8 c-20 -14 -35 -12 -35 5 0 5 12 9 27 9 26 0 26 -1 8 -14z m815 -26 c0 -16 -4 -30 -10 -30 -5 0 -10 14 -10 30 0 17 5 30 10 30 6 0 10 -13 10 -30z m444 -327 c18 -4 31 -1 37 8 6 11 11 11 21 1 9 -9 9 -12 -5 -12 -9 0 -17 -5 -17 -11 0 -11 -31 -9 -76 6 -17 5 -23 1 -29 -17 -6 -20 -8 -20 -12 -5 -8 32 5 50 30 42 12 -4 35 -9 51 -12z m128 2 c9 -12 10 -31 2 -22 -4 3 -15 2 -24 -3 -13 -7 -20 -6 -23 4 -11 27 28 45 45 21z m-722 -25 c77 -26 74 -41 -5 -22 -53 13 -70 14 -85 4 -23 -14 -33 -15 -26 -3 4 5 0 12 -6 14 -7 3 -2 6 12 7 24 1 24 1 5 16 -18 13 -17 14 15 8 19 -4 60 -15 90 -24z m-33 -61 c2 -16 -3 -18 -25 -12 -15 3 -29 10 -30 15 -2 4 -8 6 -12 3 -5 -3 -11 -1 -15 4 -3 6 6 8 21 5 14 -3 23 -1 20 4 -3 5 5 7 17 5 14 -3 23 -12 24 -24z"/>
 <path d="M567 254 c-4 -4 -7 -17 -7 -28 1 -19 1 -20 11 -3 11 19 8 43 -4 31z"/>
 </g>
<g id="layer104" fill="#415a90" stroke="none">
 <path d="M45 1247 l-25 -9 0 -468 c0 -374 3 -470 13 -478 9 -8 106 -12 279 -14 l265 -3 12 90 c20 142 21 145 45 145 11 0 137 -23 278 -52 194 -40 258 -56 260 -68 2 -8 0 -46 -4 -85 -4 -38 -10 -114 -13 -167 l-7 -98 -306 -3 -307 -2 315 0 315 0 3 100 c1 55 4 110 7 122 l5 23 343 2 342 3 3 474 c1 290 -1 478 -7 484 -12 12 -1781 15 -1816 4z m474 -143 c2 -2 -10 -4 -27 -4 -18 0 -32 5 -32 10 0 9 47 4 59 -6z m119 4 c25 -25 13 -38 -17 -20 -20 11 -26 19 -18 24 16 10 21 10 35 -4z m271 -32 c99 -1 182 -3 184 -6 3 -3 7 -27 8 -55 3 -41 1 -50 -13 -53 -15 -3 -17 2 -12 30 4 18 7 38 8 43 1 14 -34 7 -51 -10 -8 -9 -38 -14 -85 -14 -40 0 -74 -5 -76 -10 -5 -14 -32 -1 -32 15 0 16 12 18 96 15 36 -2 65 2 68 8 5 8 -22 11 -88 11 -52 0 -98 -4 -101 -10 -4 -6 -13 -5 -26 3 -16 10 -25 9 -49 -5 -30 -17 -44 -11 -34 15 3 10 -4 22 -21 33 -19 13 -23 19 -13 25 8 5 21 0 35 -13 20 -19 35 -20 202 -22z m-321 -39 c2 -26 -1 -37 -11 -37 -7 0 -13 9 -13 21 1 31 -19 34 -43 8 -18 -19 -21 -20 -21 -6 0 22 -52 23 -70 2 -9 -11 -33 -15 -86 -15 -79 0 -94 -11 -42 -29 33 -12 33 -27 0 -17 -35 11 -71 46 -65 61 4 11 -2 15 -21 15 -32 0 -34 18 -4 29 13 5 102 7 198 7 l175 -2 3 -37z m801 31 c42 3 52 -11 39 -49 -12 -34 -34 -38 -43 -9 -3 11 -15 25 -26 30 -16 9 -21 6 -31 -15 -6 -14 -14 -25 -18 -25 -15 0 -19 14 -9 26 9 11 6 16 -12 23 -31 11 -89 2 -96 -15 -8 -23 -23 -16 -23 10 0 33 12 36 105 29 44 -4 95 -6 114 -5z m231 -4 c33 -4 63 -11 66 -15 7 -13 -75 -49 -94 -41 -13 4 -13 7 2 17 25 19 19 27 -16 23 -22 -2 -36 -10 -44 -26 -18 -36 -26 -39 -22 -7 3 28 1 30 -29 30 -21 0 -33 5 -33 13 0 9 11 13 34 11 19 -2 38 0 42 4 5 4 14 5 20 3 7 -3 40 -8 74 -12z m-976 0 c17 -7 22 -59 6 -69 -13 -8 -43 42 -36 60 6 17 8 17 30 9z m506 -44 c0 -22 -4 -40 -10 -40 -11 0 -13 39 -4 64 10 26 14 19 14 -24z m-234 -45 c10 -8 14 -15 8 -15 -5 0 -19 7 -30 15 -10 8 -14 15 -8 15 5 0 19 -7 30 -15z m324 6 c0 -12 -20 -25 -27 -18 -7 7 6 27 18 27 5 0 9 -4 9 -9z m-662 -18 c2 -8 -5 -13 -17 -13 -12 0 -21 6 -21 16 0 18 31 15 38 -3z m1062 7 c0 -5 -7 -10 -15 -10 -8 0 -15 5 -15 10 0 6 7 10 15 10 8 0 15 -4 15 -10z m-825 -10 c-3 -5 -17 -10 -31 -10 -14 0 -22 4 -19 10 3 6 17 10 31 10 14 0 22 -4 19 -10z m-5 -149 c-6 -12 -16 -21 -23 -21 -8 0 -9 3 -1 8 6 4 14 16 17 26 4 10 10 16 13 13 3 -3 1 -15 -6 -26z m651 -77 c7 -9 18 -26 24 -38 9 -17 20 -21 60 -21 28 0 56 -4 63 -8 6 -5 18 -5 25 0 39 24 66 -2 47 -47 -15 -36 -30 -34 -48 4 -15 31 -57 34 -57 4 0 -22 -11 -32 -25 -23 -8 5 -8 10 0 20 18 22 -46 31 -70 10 -23 -21 -35 -4 -19 26 16 31 -7 72 -38 66 -22 -4 -30 3 -16 16 12 12 40 7 54 -9z m89 6 c0 -5 -11 -10 -25 -10 -14 0 -25 5 -25 10 0 6 11 10 25 10 14 0 25 -4 25 -10z m-708 -71 c52 -11 198 -57 208 -66 3 -3 -4 -11 -14 -19 -11 -8 -16 -14 -12 -14 4 0 1 -7 -8 -15 -10 -10 -24 -13 -41 -9 -32 8 -32 20 1 28 40 10 23 30 -40 46 -40 10 -62 11 -73 4 -25 -15 -26 -30 -3 -31 11 -1 18 2 16 6 -3 5 5 6 17 4 14 -3 23 -12 24 -24 2 -16 -3 -18 -25 -12 -15 3 -29 9 -32 12 -3 3 -12 7 -20 8 -8 1 -32 4 -53 8 l-39 6 27 27 c15 14 22 28 16 30 -11 4 -16 22 -6 22 2 0 28 -5 57 -11z"/>
 <path d="M325 1040 c-15 -6 -9 -8 23 -7 23 1 42 5 42 9 0 10 -39 9 -65 -2z"/>
 <path d="M1390 1025 c0 -8 5 -15 10 -15 6 0 10 7 10 15 0 8 -4 15 -10 15 -5 0 -10 -7 -10 -15z"/>
 <path d="M1650 640 c-8 -5 -11 -12 -7 -16 4 -4 13 -2 19 4 15 15 7 24 -12 12z"/>
 <path d="M649 472 c-18 -3 -42 -112 -63 -293 l-12 -97 46 -6 c25 -3 149 -8 276 -12 219 -7 231 -6 238 12 4 10 10 84 13 164 l6 146 -99 18 c-54 9 -146 26 -204 37 -177 34 -184 35 -201 31z"/>
 </g>
<g id="layer105" fill="#076ccb" stroke="none">
 <path d="M70 1249 c0 -5 -4 -8 -9 -5 -5 4 -16 3 -25 0 -14 -5 -16 -55 -16 -473 0 -350 3 -470 12 -479 9 -9 85 -12 280 -12 l268 0 0 28 c1 48 30 196 41 202 14 9 542 -99 551 -113 4 -7 5 -41 2 -77 -3 -39 -2 -60 3 -53 7 10 93 13 349 15 l339 3 3 474 c2 360 -1 477 -10 488 -10 13 -49 14 -258 9 -327 -9 -1230 -10 -1303 -2 -32 3 -56 3 -53 -2 2 -4 -6 -7 -19 -7 -13 0 -21 3 -18 8 2 4 -28 7 -66 7 -43 0 -71 -4 -71 -11z m474 -141 c-7 -10 -84 -11 -84 0 0 4 20 8 45 8 24 1 42 -3 39 -8z m93 1 c8 -8 17 -8 30 0 16 8 25 6 42 -10 20 -18 35 -20 206 -20 l185 0 0 -38 c0 -53 10 -57 31 -14 l17 38 1 -42 c1 -32 -3 -43 -14 -43 -8 0 -24 -5 -35 -12 -26 -17 -30 -9 -21 35 8 33 7 37 -10 37 -11 0 -30 -9 -42 -21 -14 -13 -29 -18 -42 -14 -11 4 -27 6 -35 6 -8 -1 -30 -1 -47 -1 -23 0 -33 -5 -33 -16 0 -14 -2 -14 -16 1 -9 9 -14 24 -11 36 4 16 2 19 -11 14 -9 -4 -23 -7 -29 -6 -52 4 -66 2 -73 -9 -11 -18 -32 -2 -25 20 7 23 -31 48 -48 31 -11 -11 -67 15 -67 31 0 12 34 10 47 -3z m-52 -39 c8 -7 22 -10 30 -6 26 10 45 -5 45 -34 0 -46 -27 -48 -45 -5 -8 19 -9 19 -12 -2 -3 -15 -12 -23 -24 -23 -10 0 -18 3 -18 8 1 4 1 14 0 24 -2 23 -41 11 -41 -13 0 -11 -4 -19 -10 -19 -5 0 -10 9 -10 20 0 27 -43 27 -78 -1 -22 -17 -35 -19 -74 -14 -31 5 -48 3 -48 -4 0 -6 -8 -8 -17 -5 -15 5 -16 4 -3 -5 8 -6 26 -11 40 -11 17 0 21 -3 13 -11 -6 -6 -20 -8 -31 -5 -32 11 -73 47 -66 58 4 7 2 8 -4 4 -7 -4 -12 -2 -12 3 0 6 -7 11 -15 11 -22 0 -18 20 6 29 37 13 358 14 374 1z m804 0 c43 0 51 -12 38 -56 -13 -42 -22 -43 -42 -4 -18 35 -51 40 -60 9 -7 -22 -31 -21 -28 2 5 25 -31 39 -71 28 -20 -5 -36 -14 -36 -19 0 -6 -7 -10 -16 -10 -11 0 -14 6 -8 23 11 34 23 38 109 32 44 -4 95 -6 114 -5z m249 -7 c23 -4 43 -12 44 -18 1 -14 -52 -43 -79 -44 -27 -1 -30 14 -5 28 19 12 18 13 -21 15 -22 2 -32 -5 -43 -26 -8 -16 -19 -26 -25 -22 -7 4 -6 10 0 18 14 17 4 26 -31 26 -26 0 -38 17 -22 33 8 8 123 1 182 -10z m-712 -83 c9 0 12 -4 9 -10 -9 -14 -18 -13 -41 6 -17 14 -17 15 -1 10 10 -3 25 -6 33 -6z m314 -2 c0 -9 3 -9 12 0 16 16 28 15 28 -1 0 -9 -14 -14 -40 -15 -38 -2 -54 11 -27 21 20 9 27 8 27 -5z m-660 -18 c0 -13 -7 -20 -20 -20 -13 0 -20 7 -20 20 0 13 7 20 20 20 13 0 20 -7 20 -20z m238 1 c-2 -9 -7 -15 -11 -13 -4 1 -16 2 -27 2 -29 0 -15 25 16 26 18 2 24 -2 22 -15z m822 9 c0 -5 -9 -10 -20 -10 -11 0 -20 5 -20 10 0 6 9 10 20 10 11 0 20 -4 20 -10z m-760 -80 c0 -5 -5 -10 -11 -10 -7 0 -18 -8 -25 -17 -7 -10 -14 -13 -14 -6 0 6 5 15 10 18 6 4 8 11 5 16 -4 5 3 9 14 9 12 0 21 -4 21 -10z m103 -30 c9 -11 24 -20 32 -20 8 0 15 -4 15 -9 0 -4 -27 1 -59 13 -59 20 -71 36 -28 36 13 0 30 -9 40 -20z m-172 -53 c-11 -18 -27 -46 -35 -62 -9 -17 -16 -25 -17 -20 0 6 -4 1 -9 -10 -8 -20 -9 -20 -9 1 -1 18 7 31 49 81 5 7 10 19 10 28 0 8 7 15 16 15 13 0 13 -5 -5 -33z m265 8 c10 -8 26 -15 35 -15 18 0 81 -30 64 -30 -17 0 -118 39 -129 50 -16 16 7 12 30 -5z m381 -77 c13 -12 23 -27 23 -34 0 -25 38 -34 116 -29 56 4 80 2 86 -7 12 -20 10 -42 -7 -64 -14 -18 -16 -18 -43 14 -20 24 -32 31 -45 26 -10 -4 -16 -13 -13 -21 3 -7 -1 -16 -10 -20 -21 -8 -29 4 -15 21 9 11 6 15 -21 19 -23 4 -37 0 -46 -11 -20 -26 -36 -1 -20 33 11 25 10 29 -12 47 -13 10 -29 17 -37 14 -16 -7 -17 6 -1 22 16 16 18 16 45 -10z m100 -5 c2 -5 -10 -10 -27 -11 -28 -1 -40 15 -24 31 8 8 47 -7 51 -20z m-609 -90 l122 -36 -27 -19 c-16 -10 -23 -18 -18 -18 6 0 3 -5 -5 -10 -13 -9 -13 -11 0 -20 20 -13 0 -13 -39 1 -38 13 -39 22 -4 38 35 16 20 28 -50 41 -57 11 -77 8 -77 -12 0 -7 5 -6 14 1 22 19 65 3 61 -21 -3 -12 -6 -22 -8 -24 -4 -4 -147 25 -159 32 -12 8 -10 24 3 24 7 0 17 8 24 17 13 18 5 33 -25 46 -37 17 77 -8 188 -40z m512 -73 c0 -5 -9 -10 -21 -10 -11 0 -17 5 -14 10 3 6 13 10 21 10 8 0 14 -4 14 -10z"/>
 <path d="M617 374 c-24 -146 -41 -283 -36 -288 6 -7 353 -26 461 -26 l87 0 7 38 c4 20 8 93 8 161 l1 125 -190 37 c-104 21 -220 40 -256 44 l-66 7 -16 -98z"/>
 <path d="M1158 151 c-5 -67 -12 -108 -20 -113 -9 -6 -7 -8 7 -6 18 3 20 12 23 92 5 129 -3 148 -10 27z"/>
 <path d="M662 33 c70 -2 187 -2 260 0 73 1 16 3 -127 3 -143 0 -203 -2 -133 -3z"/>
 </g>
<g id="layer106" fill="#31a1b1" stroke="none">
 <path d="M103 1253 c20 -2 54 -2 75 0 20 2 3 4 -38 4 -41 0 -58 -2 -37 -4z"/>
 <path d="M1648 1254 c-2 -1 -201 -4 -443 -6 -558 -4 -741 -10 -668 -21 31 -5 54 -15 57 -24 4 -8 12 -13 19 -10 7 3 22 -2 32 -10 18 -14 18 -15 2 -9 -10 3 -30 6 -43 6 -14 0 -22 4 -19 10 3 6 1 10 -4 10 -6 0 -11 -6 -11 -12 0 -10 -2 -10 -8 -2 -8 13 -25 -1 -30 -24 -2 -10 3 -10 17 -2 13 7 22 7 26 0 3 -5 1 -10 -4 -10 -6 0 -11 -7 -11 -16 0 -9 -5 -12 -12 -8 -8 5 -7 0 2 -11 8 -10 10 -16 4 -12 -7 4 -17 1 -23 -7 -9 -10 -5 -13 21 -14 17 0 34 -6 38 -12 4 -7 15 -8 30 -2 23 9 23 9 -8 15 -19 4 -32 13 -32 21 0 12 13 14 63 11 34 -2 65 -4 70 -4 4 -1 7 -8 7 -16 0 -17 -11 -16 228 -16 l152 0 0 -39 c0 -50 17 -61 26 -15 9 50 24 43 24 -11 0 -40 -2 -45 -19 -39 -11 3 -22 1 -26 -5 -3 -5 -13 -10 -21 -10 -13 0 -14 8 -9 40 8 46 -3 51 -41 21 -19 -15 -36 -18 -94 -14 -72 4 -89 -9 -30 -22 17 -4 30 -13 30 -21 0 -19 -32 -11 -72 18 -26 18 -33 30 -29 51 1 5 -4 7 -11 4 -7 -2 -12 -11 -10 -21 4 -23 -15 -20 -23 4 -4 14 -15 20 -36 20 -16 0 -29 -4 -29 -10 0 -15 -27 -12 -33 4 -3 8 -1 17 6 20 8 3 6 10 -7 20 -29 24 -34 20 -31 -24 3 -53 -19 -74 -45 -42 l-18 21 -5 -20 c-7 -26 -31 -20 -35 9 -2 14 -10 22 -24 22 -15 0 -19 -5 -15 -20 3 -11 1 -20 -5 -20 -5 0 -6 -4 -3 -10 3 -5 1 -10 -4 -10 -6 0 -11 14 -11 30 0 25 -4 30 -25 30 -27 0 -34 -17 -10 -26 19 -8 19 -21 0 -21 -8 0 -12 3 -11 6 2 3 -7 6 -20 6 -20 0 -22 -2 -10 -11 12 -8 12 -14 4 -22 -8 -8 -7 -13 5 -18 9 -3 17 -10 17 -14 0 -5 -11 -3 -25 3 -14 7 -25 17 -25 23 0 6 -7 11 -15 11 -8 0 -12 -4 -9 -8 2 -4 1 -9 -3 -12 -5 -2 -2 -2 5 0 9 2 11 -4 7 -20 -4 -14 -3 -18 3 -9 7 10 11 10 22 -3 7 -9 20 -15 29 -14 9 1 24 -2 35 -6 12 -5 21 -3 26 6 7 11 10 10 15 -4 4 -9 23 -19 42 -23 l36 -7 -44 -20 c-28 -13 -38 -22 -28 -24 13 -3 16 -15 14 -59 -2 -30 1 -57 6 -60 5 -3 8 0 7 7 -2 6 9 12 25 13 15 1 27 1 27 -1 0 -1 -16 -9 -35 -19 l-35 -16 23 -19 c12 -11 18 -19 12 -18 -32 4 -39 -2 -20 -18 19 -15 19 -15 -7 -9 -21 5 -26 3 -23 -12 1 -10 10 -16 21 -15 11 1 13 0 6 -3 -6 -3 -9 -11 -6 -17 5 -8 2 -8 -7 1 -17 16 -37 16 -21 0 7 -7 12 -24 12 -39 0 -15 6 -29 13 -32 9 -3 9 -8 1 -16 -17 -18 -49 16 -33 35 13 16 4 48 -11 39 -11 -7 -3 23 12 41 5 7 2 16 -7 24 -13 11 -15 7 -16 -26 -3 -63 -4 -68 -12 -81 -5 -8 -4 -13 2 -13 5 0 11 -12 13 -27 2 -21 9 -29 28 -31 20 -2 22 -1 10 8 -13 10 -13 11 0 7 22 -6 25 -37 3 -37 -17 -1 -17 -1 0 -14 18 -14 18 -16 2 -40 -15 -23 -34 -39 -21 -18 2 4 1 14 -4 22 -8 12 -12 11 -25 -8 -9 -12 -21 -20 -26 -17 -5 4 -9 1 -9 -4 0 -6 10 -11 23 -11 21 -1 22 -1 3 -15 -11 -8 -28 -15 -39 -15 -10 0 -15 -5 -12 -10 3 -6 17 -7 31 -4 13 3 24 2 24 -3 0 -5 -92 -10 -205 -11 -169 -2 -209 0 -220 12 -13 12 -15 85 -15 470 0 422 1 456 18 466 16 11 16 11 -1 6 -10 -3 -21 -6 -23 -6 -2 0 -4 -211 -4 -468 0 -351 3 -471 12 -480 9 -9 85 -12 280 -12 l268 0 0 28 c1 48 30 196 41 202 14 9 542 -99 551 -113 4 -7 5 -41 2 -77 -3 -39 -2 -60 3 -53 7 10 93 13 349 15 l339 3 3 474 c2 349 -1 477 -9 488 -9 10 -37 13 -110 12 -54 -1 -99 -3 -101 -5z m-252 -184 c38 1 47 -17 33 -60 -14 -38 -25 -38 -47 0 -20 35 -43 39 -57 9 -11 -24 -31 -23 -28 2 5 37 -89 41 -110 4 -12 -22 -29 -8 -21 18 11 34 23 38 114 32 47 -3 99 -6 116 -5z m248 -7 c52 -11 55 -25 8 -46 -48 -21 -72 -22 -72 -2 0 8 7 15 16 15 8 0 13 4 9 9 -3 5 -18 8 -33 7 -21 -2 -29 -10 -37 -34 -14 -48 -31 -41 -26 11 2 13 -5 17 -28 17 -29 0 -41 17 -25 33 8 8 133 1 188 -10z m-364 -89 c0 -10 -12 -14 -40 -14 -37 0 -49 8 -34 22 12 13 74 6 74 -8z m354 -14 c-6 -6 -15 -6 -24 0 -13 9 -13 11 0 20 18 11 39 -5 24 -20z m-1054 0 c0 -13 -7 -20 -20 -20 -11 0 -20 2 -20 4 0 2 -3 11 -6 20 -5 12 0 16 20 16 19 0 26 -5 26 -20z m238 1 c-4 -15 -23 -17 -58 -5 -20 7 0 19 35 20 19 2 25 -2 23 -15z m87 -71 c6 -3 20 -7 33 -8 12 0 35 -10 51 -21 16 -12 34 -21 40 -21 6 0 19 -4 29 -9 24 -13 97 -44 165 -71 32 -12 56 -24 54 -27 -4 -3 -18 1 -82 28 -11 4 -40 15 -65 23 -25 9 -92 33 -150 56 -57 22 -109 40 -115 40 -11 0 -95 -134 -95 -151 0 -6 -4 -7 -10 -4 -5 3 -10 -1 -10 -9 0 -9 -5 -16 -11 -16 -17 0 -1 51 21 70 11 10 17 20 13 24 -4 3 4 16 16 27 12 12 20 27 17 35 -3 8 0 14 7 14 7 0 20 9 30 20 16 18 34 19 62 0z m555 -150 c11 -11 20 -27 20 -35 0 -26 36 -35 119 -30 79 6 81 5 87 -19 6 -25 -10 -66 -26 -66 -5 0 -18 14 -30 30 -26 37 -38 38 -50 5 -11 -30 -45 -36 -35 -6 8 26 -44 37 -63 13 -20 -26 -36 -1 -20 33 11 25 10 29 -11 46 -16 13 -31 17 -45 13 -21 -7 -21 -6 -2 15 24 26 31 26 56 1z m100 -5 c0 -6 -13 -12 -30 -13 -27 -1 -40 15 -25 30 10 9 55 -4 55 -17z m-615 -92 c66 -19 125 -39 130 -45 7 -6 7 -8 0 -6 -6 2 -12 -1 -13 -7 -2 -5 -8 -16 -14 -22 -6 -7 -7 -13 -2 -13 5 0 1 -5 -9 -11 -12 -7 -28 -7 -52 1 -42 14 -44 23 -8 39 35 16 20 28 -50 41 -57 11 -77 8 -77 -12 0 -7 5 -6 14 1 22 19 65 3 61 -21 -3 -12 -6 -22 -8 -24 -4 -5 -147 25 -160 33 -6 3 -24 10 -41 14 -28 6 -29 7 -6 8 18 1 26 7 26 20 0 15 -3 17 -13 9 -8 -7 -13 -7 -13 0 0 5 10 17 23 26 27 20 55 16 212 -31z m515 -78 c0 -8 -6 -15 -14 -15 -17 0 -28 14 -19 24 12 12 33 6 33 -9z m-953 -230 c0 -8 -4 -15 -9 -15 -5 0 -6 -4 -3 -10 3 -5 1 -10 -4 -10 -14 0 -14 6 -1 31 13 23 17 24 17 4z"/>
 <path d="M480 1212 c0 -5 9 -8 20 -7 29 2 33 10 5 13 -14 1 -25 -2 -25 -6z"/>
 <path d="M483 1138 c4 -23 44 -34 44 -11 0 16 -9 17 -27 1 -8 -7 -6 -3 4 10 19 22 19 22 -2 22 -17 0 -21 -5 -19 -22z"/>
 <path d="M430 1101 c0 -5 -8 -12 -17 -14 -15 -4 -15 -5 -2 -6 9 0 22 6 29 14 9 10 9 15 1 15 -6 0 -11 -4 -11 -9z"/>
 <path d="M307 993 c3 -7 11 -13 18 -13 7 0 16 -6 18 -12 3 -7 6 -3 6 8 1 15 -6 23 -23 26 -17 4 -23 1 -19 -9z"/>
 <path d="M480 844 c0 -18 4 -35 9 -38 5 -4 8 6 6 21 -2 16 1 33 6 39 5 7 3 11 -6 11 -10 0 -15 -11 -15 -33z"/>
 <path d="M487 756 c-3 -7 0 -19 6 -25 8 -8 8 -11 -1 -11 -10 0 -10 -4 0 -19 14 -24 32 -16 25 10 -3 10 -1 22 4 25 6 3 5 11 -2 20 -15 18 -25 18 -32 0z"/>
 <path d="M617 374 c-24 -146 -41 -283 -36 -288 6 -7 353 -26 461 -26 l87 0 7 38 c4 20 8 93 8 161 l1 125 -190 37 c-104 21 -220 40 -256 44 l-66 7 -16 -98z m359 -138 c10 -8 17 -17 14 -19 -3 -3 -16 3 -29 14 -27 22 -15 26 15 5z"/>
 <path d="M1158 151 c-5 -67 -12 -108 -20 -113 -9 -6 -7 -8 7 -6 18 3 20 12 23 92 5 129 -3 148 -10 27z"/>
 <path d="M662 33 c70 -2 187 -2 260 0 73 1 16 3 -127 3 -143 0 -203 -2 -133 -3z"/>
 </g>
<g id="layer107" fill="#1aa3dc" stroke="none">
 <path d="M93 1253 c15 -2 39 -2 55 0 15 2 2 4 -28 4 -30 0 -43 -2 -27 -4z"/>
 <path d="M1765 1250 c4 -7 -211 -10 -637 -11 -471 -1 -630 -4 -593 -12 28 -5 55 -17 61 -25 6 -8 15 -13 20 -9 5 3 18 -2 29 -10 18 -14 18 -15 2 -9 -10 3 -30 6 -43 6 -14 0 -22 4 -19 10 3 5 1 10 -4 10 -6 0 -11 -6 -11 -12 0 -10 -2 -10 -8 -2 -8 13 -25 -1 -30 -24 -2 -10 3 -10 17 -2 13 7 22 7 26 0 3 -5 1 -10 -4 -10 -6 0 -11 -7 -11 -15 0 -12 14 -15 70 -15 57 0 74 -4 91 -21 18 -18 31 -20 127 -18 67 1 110 6 114 13 6 8 8 7 8 -1 0 -7 9 -13 21 -13 11 0 17 5 14 10 -3 6 -1 10 4 10 6 0 11 -4 11 -10 0 -5 18 -10 39 -10 39 0 40 0 47 -45 7 -51 15 -53 16 -5 1 26 5 31 20 27 10 -3 21 0 25 5 4 7 1 8 -7 3 -8 -5 -11 -4 -6 3 4 7 69 11 201 11 107 0 203 2 215 6 13 4 20 2 20 -6 0 -7 3 -9 6 -6 4 3 16 2 27 -4 14 -8 18 -8 13 0 -4 6 -3 11 3 11 5 0 13 -4 16 -10 3 -5 15 -10 27 -10 14 0 18 -5 14 -16 -3 -9 -6 -18 -6 -20 0 -2 -8 -4 -19 -4 -22 0 -46 -25 -32 -34 5 -4 9 -15 8 -27 -2 -32 -41 -21 -45 14 -2 19 -9 27 -23 27 -16 0 -18 3 -9 19 8 17 7 20 -11 18 -16 -1 -19 -7 -16 -24 2 -12 1 -20 -4 -18 -4 3 -9 0 -11 -7 -3 -7 -12 -9 -22 -5 -13 5 -15 11 -6 26 5 11 10 22 10 26 0 9 -70 2 -71 -7 -1 -4 -3 -12 -4 -18 -1 -5 -3 -14 -4 -20 -1 -12 -41 -14 -41 -2 0 5 -9 19 -19 31 -20 23 -41 21 -41 -3 0 -8 -6 -19 -14 -25 -11 -10 -16 -8 -21 8 -3 12 -4 25 -1 30 3 5 -4 11 -17 15 -33 9 -37 8 -37 -9 0 -18 -17 -20 -22 -3 -6 18 -28 -1 -28 -25 0 -20 0 -20 -15 -1 -14 18 -14 18 -16 -6 -1 -14 -1 -28 0 -32 2 -12 -17 -10 -24 2 -9 15 -27 0 -21 -17 5 -11 -1 -14 -22 -11 -20 2 -26 8 -25 23 8 60 7 68 -7 73 -8 3 -12 1 -8 -3 14 -15 -32 -37 -77 -37 -24 -1 -42 -5 -39 -10 3 -4 12 -8 20 -8 10 0 4 -9 -15 -26 -24 -20 -34 -23 -48 -15 -11 6 -13 11 -5 11 36 1 -44 49 -87 53 -15 1 -19 6 -15 19 4 14 0 18 -21 18 -14 0 -24 -4 -21 -9 3 -5 -2 -12 -11 -15 -20 -8 -46 21 -39 41 3 7 -3 17 -13 22 -16 9 -17 5 -13 -45 4 -45 2 -54 -12 -54 -9 0 -16 -4 -16 -10 0 -5 -4 -10 -10 -10 -5 0 -10 8 -10 18 0 10 -3 22 -7 25 -13 13 -33 -16 -33 -49 0 -24 -5 -34 -16 -34 -9 0 -12 -5 -8 -11 4 -7 1 -10 -7 -7 -18 6 -20 75 -2 82 18 7 17 56 -2 56 -8 0 -15 -9 -15 -20 0 -11 -5 -20 -11 -20 -5 0 -8 -3 -6 -7 3 -5 -4 -17 -14 -27 -11 -11 -19 -15 -19 -8 0 7 -10 8 -32 1 -43 -12 -48 -11 -48 4 0 8 -7 14 -15 14 -8 0 -12 -4 -9 -8 2 -4 1 -9 -3 -12 -5 -2 -2 -2 5 0 9 2 12 -4 8 -20 -3 -12 -3 -16 0 -9 5 10 10 10 25 -4 10 -9 25 -14 32 -11 8 3 20 0 26 -6 7 -7 12 -7 11 -2 -5 22 1 35 15 35 8 0 14 -3 13 -7 -4 -22 18 -43 49 -49 l36 -7 -44 -20 c-28 -13 -38 -22 -28 -24 13 -3 16 -15 14 -59 -2 -30 1 -57 6 -60 5 -3 8 0 7 7 -2 6 9 12 25 13 15 1 27 1 27 -1 0 -1 -16 -9 -35 -19 l-35 -16 23 -19 c12 -11 18 -19 12 -18 -23 3 -36 -2 -30 -11 3 -5 15 -10 26 -10 16 0 19 -7 19 -47 0 -25 -2 -44 -5 -42 -4 5 -12 38 -14 61 -2 12 -41 29 -52 23 -16 -10 10 -35 29 -28 11 3 13 2 5 -4 -8 -5 -9 -14 -3 -23 9 -14 3 -69 -9 -83 -4 -4 -16 -1 -26 7 -16 12 -17 16 -6 30 16 19 10 38 -12 42 -13 2 -16 -3 -12 -16 3 -10 1 -21 -5 -25 -7 -4 -3 -14 12 -26 19 -17 20 -22 8 -30 -11 -8 -8 -9 13 -5 31 7 51 -19 26 -35 -12 -8 -12 -10 0 -18 11 -7 10 -13 -4 -35 -15 -23 -34 -39 -21 -18 2 4 1 14 -4 22 -8 12 -12 11 -25 -8 -9 -12 -21 -20 -26 -17 -5 4 -9 1 -9 -4 0 -6 10 -11 23 -11 21 -1 22 -1 3 -15 -11 -8 -29 -15 -40 -15 -10 0 -16 -3 -12 -7 9 -9 66 -11 66 -2 0 3 6 13 13 23 12 16 14 16 14 2 0 -9 -4 -16 -9 -16 -5 0 -6 -5 -2 -11 3 -6 19 -9 35 -7 16 3 29 1 29 -3 0 -5 -118 -7 -263 -6 l-262 2 -3 464 c-1 338 1 467 9 478 9 11 9 12 -5 7 -14 -6 -16 -49 -16 -473 0 -350 3 -470 12 -479 9 -9 85 -12 278 -12 l267 0 1 41 c1 22 4 44 6 48 3 4 10 36 15 71 6 35 15 66 21 70 9 6 509 -90 546 -104 7 -3 13 -25 15 -49 2 -25 1 -43 -3 -40 -5 2 -8 -11 -8 -29 0 -20 3 -28 8 -21 6 10 91 13 348 15 l339 3 3 474 c1 341 -1 478 -9 487 -13 16 -104 20 -94 4z m-965 -40 c0 -6 -33 -10 -80 -10 -47 0 -80 4 -80 10 0 6 33 10 80 10 47 0 80 -4 80 -10z m482 -225 c15 -20 7 -25 -44 -25 -49 0 -51 1 -34 19 18 20 66 24 78 6z m-460 -35 c-4 -27 -22 -44 -22 -20 0 6 -13 10 -30 10 -16 0 -30 4 -30 8 0 17 25 32 55 32 29 0 31 -2 27 -30z m-182 -30 c0 -11 -4 -20 -10 -20 -5 0 -10 9 -10 20 0 11 5 20 10 20 6 0 10 -9 10 -20z m271 -20 c43 0 42 0 67 -16 12 -8 22 -11 22 -7 1 5 7 -3 15 -17 7 -14 16 -24 19 -22 17 7 56 1 51 -8 -3 -6 5 -10 19 -10 28 0 74 -18 94 -37 8 -7 25 -11 40 -8 15 3 21 2 14 -1 -9 -4 5 -16 37 -31 28 -14 51 -29 51 -34 0 -11 -6 -11 -28 0 -24 12 -52 24 -177 71 -60 23 -144 55 -185 71 -82 32 -100 35 -100 17 0 -6 -10 -25 -22 -42 -13 -17 -32 -48 -42 -68 -11 -21 -23 -38 -28 -38 -15 0 -8 -18 10 -23 140 -43 306 -91 342 -98 24 -5 49 -14 55 -21 7 -8 6 -9 -3 -4 -7 4 -22 4 -33 1 -17 -6 -18 -9 -8 -16 18 -11 6 -21 -28 -22 l-28 0 28 -11 c47 -17 30 -24 -25 -9 -118 30 -142 44 -98 58 39 12 21 32 -40 44 -60 12 -80 9 -80 -11 0 -7 5 -6 14 1 22 19 65 3 61 -21 -7 -34 6 -34 -180 9 -38 9 -77 20 -86 24 -20 10 -45 -15 -52 -51 -4 -22 -4 -22 -6 6 0 18 7 39 19 52 11 12 20 26 20 31 0 5 9 9 19 8 15 -1 17 -4 9 -14 -8 -10 -6 -13 6 -13 27 0 46 26 51 67 12 91 31 133 62 133 7 0 12 3 11 8 -2 4 7 18 20 32 12 13 22 27 22 31 0 13 35 15 38 2 2 -7 17 -13 33 -13z m554 -154 c8 -7 17 -25 21 -40 7 -29 7 -29 127 -27 81 2 88 0 84 -16 -3 -10 -8 -33 -12 -50 -9 -44 -36 -43 -58 2 -11 24 -21 33 -32 29 -18 -7 -20 -24 -2 -24 6 0 1 -9 -13 -19 -29 -23 -44 -17 -37 15 4 21 1 24 -29 24 -19 0 -34 -4 -34 -10 0 -5 -7 -10 -15 -10 -17 0 -20 31 -4 47 8 8 7 17 -3 33 -10 17 -20 20 -45 16 -35 -5 -40 9 -13 31 20 17 48 16 65 -1z m95 -6 c0 -15 -7 -20 -26 -20 -14 0 -23 -4 -19 -10 3 -5 1 -10 -4 -10 -6 0 -11 14 -11 30 0 27 3 30 30 30 23 0 30 -4 30 -20z m-100 -185 c-7 -8 -19 -15 -26 -15 -17 0 -18 26 -2 44 19 20 45 -8 28 -29z m-869 -79 l-6 -49 -11 46 c-5 25 -6 44 -2 41 4 -3 8 3 8 12 0 11 3 14 9 9 4 -6 6 -32 2 -59z m-16 -111 c-4 -25 -10 -44 -12 -41 -3 3 -2 26 2 51 3 26 9 45 12 42 2 -3 1 -26 -2 -52z m1213 -72 c-10 -2 -26 -2 -35 0 -10 3 -2 5 17 5 19 0 27 -2 18 -5z"/>
 <path d="M483 1143 c0 -10 9 -20 19 -20 25 -2 29 9 10 27 -14 13 -15 12 -9 -5 7 -19 7 -19 -7 -1 -15 18 -15 18 -13 -1z"/>
 <path d="M526 1092 c-3 -5 14 -9 37 -10 30 -1 38 1 27 8 -19 12 -57 13 -64 2z"/>
 <path d="M466 1019 c-11 -11 -27 -19 -35 -19 -10 -1 -7 -6 9 -14 30 -17 57 -6 55 23 -2 29 -7 31 -29 10z"/>
 <path d="M480 857 c0 -11 1 -18 3 -16 1 2 8 11 15 20 9 13 9 16 -3 16 -8 0 -15 -9 -15 -20z"/>
 <path d="M487 756 c-3 -7 0 -19 6 -25 8 -8 8 -11 -1 -11 -10 0 -10 -4 0 -19 14 -24 32 -16 25 10 -3 10 -1 22 4 25 6 3 5 11 -2 20 -15 18 -25 18 -32 0z"/>
 <path d="M617 374 c-24 -143 -41 -283 -36 -287 7 -7 153 -16 356 -23 l192 -7 7 39 c4 21 8 95 8 163 l1 125 -190 37 c-104 21 -220 40 -256 44 l-66 7 -16 -98z m345 -41 c29 -34 44 -77 34 -99 -9 -21 -10 -21 -68 12 -55 31 -58 32 -68 14 -5 -10 -7 -26 -3 -36 9 -24 -13 -9 -28 18 -6 11 -7 18 -1 14 5 -3 15 0 21 8 9 11 9 15 -1 20 -7 3 3 4 23 2 36 -4 59 14 59 49 0 20 13 19 32 -2z"/>
 <path d="M960 269 c0 -5 -4 -7 -10 -4 -5 3 -10 1 -10 -4 0 -16 16 -13 30 4 9 10 9 15 1 15 -6 0 -11 -5 -11 -11z"/>
 <path d="M1158 151 c-5 -67 -12 -108 -20 -113 -9 -6 -7 -8 7 -6 18 3 20 12 23 92 5 129 -3 148 -10 27z"/>
 <path d="M662 33 c70 -2 187 -2 260 0 73 1 16 3 -127 3 -143 0 -203 -2 -133 -3z"/>
 </g>
<g id="layer108" fill="#0ad9f1" stroke="none">
 <path d="M1848 1250 c13 -15 17 -90 4 -90 -4 0 -13 5 -19 11 -6 6 -42 11 -81 12 -39 2 -74 6 -78 9 -4 4 -15 3 -25 -2 -11 -7 -20 -7 -24 0 -3 5 -12 7 -20 3 -9 -3 -23 1 -32 8 -14 12 -16 12 -8 0 6 -11 5 -12 -6 -5 -20 12 -51 16 -44 5 3 -6 -6 -7 -22 -2 -16 4 -37 7 -48 5 -18 -3 -240 -4 -293 -1 -21 1 -22 2 -6 14 9 7 20 10 24 8 9 -6 365 -6 505 0 73 3 105 1 95 -5 -8 -5 -10 -10 -4 -10 5 0 14 4 20 9 5 5 18 11 29 14 11 3 -196 4 -460 4 -264 0 -460 -2 -435 -4 24 -3 48 -10 52 -16 6 -9 8 -9 8 1 0 6 5 12 11 12 5 0 7 -5 3 -12 -5 -7 -3 -8 7 -2 8 4 39 8 69 9 53 0 55 -1 55 -25 0 -24 2 -25 53 -22 36 2 52 -1 47 -8 -7 -11 -98 -14 -109 -3 -4 4 -25 8 -48 9 -25 1 -35 -1 -27 -7 11 -6 10 -9 -5 -15 -25 -10 0 -23 33 -17 20 3 23 1 14 -8 -6 -6 -24 -11 -39 -11 -24 -1 -25 -2 -8 -11 10 -6 22 -15 26 -21 5 -7 18 -5 40 8 l33 19 -19 -21 c-22 -25 -15 -42 9 -22 8 7 26 10 40 8 14 -3 25 -2 25 1 0 4 86 5 190 3 183 -4 190 -4 184 14 -6 17 -5 17 12 -1 10 -12 27 -19 37 -17 27 6 87 -18 87 -34 0 -8 -14 -20 -30 -26 -28 -9 -30 -13 -24 -44 6 -32 4 -34 -20 -34 -22 0 -26 4 -26 30 0 23 -4 30 -20 30 -22 0 -26 10 -9 27 9 9 6 12 -10 10 -18 -1 -22 -6 -18 -25 3 -15 -2 -26 -14 -32 -22 -12 -35 4 -30 38 2 15 -3 22 -15 22 -16 0 -54 -35 -54 -50 0 -4 -9 -10 -19 -13 -14 -3 -24 4 -37 29 -22 40 -39 39 -39 -3 0 -23 -4 -29 -15 -25 -26 9 -41 34 -29 49 9 10 8 13 -4 13 -8 0 -24 3 -34 6 -15 5 -16 4 -3 -6 11 -9 12 -13 3 -17 -19 -7 -16 -24 3 -21 26 5 41 -27 22 -45 -10 -11 -19 -12 -26 -5 -6 6 -12 6 -16 -1 -12 -19 -45 6 -39 29 3 11 9 20 14 20 5 0 9 9 9 20 0 20 -19 29 -21 10 -1 -5 -3 -14 -4 -20 -1 -5 -3 -15 -4 -21 -1 -8 -6 -8 -16 1 -13 10 -15 9 -15 -8 0 -26 -19 -39 -31 -21 -13 20 -11 2 2 -24 9 -18 9 -20 -2 -9 -16 15 -51 16 -67 0 -6 -6 -21 -13 -33 -15 -20 -3 -20 -2 4 18 15 11 27 25 27 30 0 6 -7 3 -16 -5 -9 -10 -33 -16 -60 -16 -25 0 -44 -5 -44 -11 0 -7 12 -8 33 -5 30 6 31 5 7 -5 l-25 -12 31 -7 c17 -4 37 -10 44 -15 9 -5 11 -4 6 3 -4 7 -1 12 6 13 50 4 88 3 89 -3 8 -50 30 -78 75 -98 25 -12 52 -19 60 -16 8 3 13 2 10 -3 -3 -4 6 -13 19 -19 14 -7 24 -17 23 -23 -2 -6 11 -19 29 -28 38 -19 50 -41 29 -53 -8 -5 -22 -15 -30 -23 -21 -21 -29 -19 -16 5 6 11 17 20 25 20 18 0 19 8 3 23 -16 15 -46 29 -123 57 -33 12 -69 26 -80 32 -12 5 -27 10 -35 12 -8 1 -29 10 -47 19 -18 9 -46 17 -63 17 -18 0 -29 4 -25 10 3 6 -3 10 -14 10 -11 0 -23 5 -26 10 -3 6 -19 10 -36 10 -16 0 -29 5 -29 10 0 21 -17 9 -40 -30 -14 -22 -28 -40 -32 -40 -5 0 -8 -7 -8 -16 0 -8 -12 -31 -26 -50 l-26 -34 26 0 c14 0 26 -4 26 -9 0 -5 12 -11 28 -14 43 -8 215 -58 234 -68 10 -5 29 -9 44 -9 14 0 33 -4 43 -10 10 -5 37 -11 60 -12 54 -4 53 -18 -1 -19 -39 0 -100 -17 -70 -18 17 -1 -24 -41 -42 -41 -8 0 -18 5 -21 10 -3 6 -14 10 -23 10 -24 0 -102 31 -102 41 0 4 9 11 20 14 39 12 21 32 -40 44 -60 12 -80 9 -80 -11 0 -7 5 -6 14 1 22 19 65 3 61 -21 -6 -30 -9 -31 -52 -19 -21 6 -60 11 -86 11 -30 0 -46 4 -42 10 4 6 -12 10 -40 10 -25 0 -44 4 -41 8 3 5 -1 9 -9 9 -8 0 -12 -4 -9 -9 3 -4 -2 -8 -10 -8 -9 0 -16 -3 -17 -7 -1 -5 -2 -19 -4 -33 -2 -14 -8 -40 -13 -58 -6 -19 -7 -30 -1 -27 5 4 9 12 9 20 0 7 5 15 12 17 14 5 541 -101 549 -110 11 -12 19 -112 9 -112 -6 0 -10 -8 -9 -17 0 -11 3 -13 6 -5 3 9 75 12 306 13 167 1 291 5 277 9 -20 6 -16 8 23 9 32 1 46 -3 41 -10 -4 -7 2 -9 17 -7 l24 3 3 476 c2 445 1 477 -15 490 -15 11 -16 11 -5 -1z m-731 -96 c2 -5 -15 -9 -36 -9 -28 0 -37 3 -30 11 11 13 61 12 66 -2z m731 -63 c-1 -39 -2 -46 -5 -21 -3 19 -9 39 -14 45 -15 15 -11 45 6 39 11 -5 15 -21 13 -63z m-730 35 c-2 -1 -12 -8 -22 -16 -18 -14 -19 -14 -7 8 7 12 17 20 22 16 6 -3 9 -7 7 -8z m207 4 c4 -6 1 -9 -7 -8 -7 2 -12 -3 -10 -9 1 -7 -2 -13 -8 -13 -14 0 -12 27 3 33 6 3 13 6 14 6 1 1 5 -4 8 -9z m395 0 c-10 -6 -11 -10 -2 -10 6 0 12 -4 12 -10 0 -5 -7 -10 -15 -10 -8 0 -15 6 -15 13 0 17 10 27 24 27 6 0 4 -5 -4 -10z m76 -20 c0 -16 -3 -30 -8 -30 -4 0 -8 9 -8 20 0 13 -7 20 -20 20 -31 0 -24 15 8 18 25 2 28 -1 28 -28z m-416 0 c0 -5 -9 -10 -21 -10 -11 0 -17 5 -14 10 3 6 13 10 21 10 8 0 14 -4 14 -10z m380 -90 c0 -11 -4 -20 -8 -20 -4 0 -8 9 -8 20 0 11 4 20 8 20 4 0 8 -9 8 -20z m-295 -274 c8 -7 17 -25 21 -40 6 -26 6 -26 110 -26 104 0 104 0 104 -25 0 -36 -21 -75 -40 -75 -10 0 -23 13 -30 30 -12 30 -33 39 -45 20 -3 -5 0 -10 7 -10 13 0 -31 -39 -44 -40 -5 0 -8 14 -8 30 0 27 -3 30 -30 30 -16 0 -30 -4 -30 -10 0 -5 -7 -10 -15 -10 -16 0 -21 35 -5 45 6 3 5 15 -2 31 -10 22 -17 25 -45 21 -37 -6 -44 8 -15 29 22 17 50 17 67 0z m98 0 c7 -19 -1 -26 -30 -26 -14 0 -21 -4 -18 -10 3 -5 1 -10 -4 -10 -6 0 -11 14 -11 30 0 26 3 30 29 30 16 0 31 -6 34 -14z m-96 -190 c-8 -21 -47 -21 -47 -1 0 9 6 22 13 30 10 11 14 11 26 0 7 -7 11 -21 8 -29z"/>
 <path d="M1033 990 c-6 -16 -7 -30 -2 -30 5 0 9 7 9 16 0 8 4 13 9 10 5 -3 12 1 15 10 8 22 8 24 -7 24 -7 0 -18 -13 -24 -30z"/>
 <path d="M985 990 c-3 -5 3 -10 14 -10 12 0 21 5 21 10 0 6 -6 10 -14 10 -8 0 -18 -4 -21 -10z"/>
 <path d="M833 963 c-3 -10 -8 -21 -10 -25 -1 -3 6 -4 17 -1 21 6 28 23 9 23 -5 0 -7 5 -4 10 3 6 4 10 0 10 -3 0 -8 -8 -12 -17z"/>
 <path d="M1110 860 c-11 -7 -11 -10 -2 -10 8 0 10 -5 6 -12 -5 -9 -3 -9 9 1 9 7 14 17 11 22 -6 11 -6 11 -24 -1z"/>
 <path d="M617 374 c-24 -143 -41 -283 -36 -287 7 -7 153 -16 356 -23 l192 -7 7 39 c4 21 8 95 8 163 l1 125 -190 37 c-104 21 -220 40 -256 44 l-66 7 -16 -98z m359 -37 c10 -12 20 -29 21 -37 1 -8 5 -25 9 -37 4 -14 2 -23 -5 -23 -6 0 -11 -7 -11 -16 0 -12 -11 -9 -54 15 -61 35 -71 37 -80 15 -7 -18 10 -45 26 -41 6 1 13 -4 15 -10 3 -7 0 -13 -6 -13 -6 0 -11 -4 -11 -9 0 -4 11 -6 24 -4 24 5 86 -16 86 -28 0 -9 -48 -29 -70 -29 -12 0 -20 7 -20 17 0 9 -3 13 -7 10 -9 -10 -33 13 -33 33 0 9 -9 25 -20 35 -40 36 -21 75 35 75 23 0 53 26 42 37 -9 8 12 33 27 33 7 0 21 -10 32 -23z"/>
 <path d="M1158 151 c-5 -67 -12 -108 -20 -113 -9 -6 -7 -8 7 -6 18 3 20 12 23 92 5 129 -3 148 -10 27z"/>
 <path d="M662 33 c70 -2 187 -2 260 0 73 1 16 3 -127 3 -143 0 -203 -2 -133 -3z"/>
 </g>
<g id="layer109" fill="#a0a6a9" stroke="none">
 <path d="M1848 1250 c9 -11 12 -122 12 -481 l0 -467 -22 -7 c-15 -4 -18 -8 -10 -12 7 -3 19 -2 27 1 13 5 15 72 15 479 0 440 -1 476 -17 488 -15 11 -16 11 -5 -1z"/>
 <path d="M840 840 c-14 -22 -28 -40 -32 -40 -5 0 -8 -7 -8 -16 0 -8 -12 -31 -26 -50 l-26 -34 26 0 c14 0 26 -4 26 -9 0 -5 12 -11 28 -14 43 -8 215 -58 234 -68 10 -5 29 -9 44 -9 14 0 33 -4 42 -9 31 -15 91 -20 104 -8 7 7 26 19 41 27 16 8 33 22 38 32 5 10 16 18 24 18 18 0 19 8 3 23 -16 15 -46 29 -123 57 -33 12 -69 26 -80 32 -12 5 -27 10 -35 12 -8 1 -29 10 -47 19 -18 9 -46 17 -63 17 -18 0 -29 4 -25 10 3 6 -3 10 -14 10 -11 0 -23 5 -26 10 -3 6 -19 10 -36 10 -16 0 -29 5 -29 10 0 21 -17 9 -40 -30z"/>
 <path d="M857 623 c-13 -13 -7 -25 7 -14 22 19 65 3 61 -21 -6 -30 -9 -31 -52 -19 -21 6 -60 11 -86 11 -30 0 -46 4 -42 10 4 6 -12 10 -40 10 -25 0 -44 4 -41 8 3 5 -1 9 -9 9 -8 0 -12 -4 -9 -9 3 -4 -2 -8 -10 -8 -9 0 -16 -3 -17 -7 -1 -5 -2 -19 -4 -33 -2 -14 -8 -40 -13 -58 -6 -19 -7 -30 -1 -27 5 4 9 12 9 20 0 7 5 15 12 17 10 4 516 -95 545 -107 9 -3 13 6 13 29 0 57 -8 66 -55 66 -24 0 -47 5 -50 10 -3 6 -14 10 -23 10 -24 0 -102 31 -102 41 0 4 9 11 20 14 38 12 21 32 -37 44 -66 13 -68 13 -76 4z"/>
 <path d="M617 374 c-24 -143 -41 -283 -36 -287 7 -7 153 -16 356 -23 l192 -7 7 39 c4 21 8 95 8 163 l1 125 -190 37 c-104 21 -220 40 -256 44 l-66 7 -16 -98z m359 -37 c10 -12 20 -29 21 -37 1 -8 5 -25 9 -37 4 -14 2 -23 -5 -23 -6 0 -11 -7 -11 -15 0 -12 -14 -8 -60 17 -52 28 -62 31 -70 18 -15 -23 -12 -30 15 -40 24 -9 35 -30 15 -30 -5 0 -10 -4 -10 -9 0 -4 11 -6 24 -4 24 5 86 -16 86 -28 0 -9 -48 -29 -70 -29 -12 0 -20 7 -20 17 0 9 -3 13 -7 10 -9 -10 -33 13 -33 33 0 9 -9 25 -20 35 -40 36 -21 75 35 75 23 0 53 26 42 37 -9 8 12 33 27 33 7 0 21 -10 32 -23z"/>
 <path d="M1158 151 c-5 -67 -12 -108 -20 -113 -9 -6 -7 -8 7 -6 18 3 20 12 23 92 5 129 -3 148 -10 27z"/>
 <path d="M662 33 c70 -2 187 -2 260 0 73 1 16 3 -127 3 -143 0 -203 -2 -133 -3z"/>
 </g>
<g id="layer110" fill="#c7d3da" stroke="none">
 <path d="M1848 1250 c9 -11 12 -121 12 -480 l0 -467 -22 -11 -23 -12 25 3 25 2 3 476 c2 445 1 477 -15 490 -15 11 -16 11 -5 -1z"/>
 <path d="M860 873 c0 -6 -3 -18 -6 -27 -4 -11 0 -16 14 -16 12 0 24 5 27 10 3 6 12 10 18 9 9 0 9 -2 0 -6 -15 -6 -17 -32 -3 -34 6 -1 15 -3 20 -4 6 -1 13 -3 16 -4 4 0 1 -7 -5 -14 -6 -8 -8 -17 -4 -20 12 -13 23 -7 23 13 0 11 5 20 10 20 6 0 10 7 10 16 0 10 -6 13 -19 9 -13 -4 -20 0 -24 16 -4 15 -12 20 -29 17 -13 -2 -28 4 -35 12 -8 9 -12 10 -13 3z"/>
 <path d="M824 807 c-5 -12 -7 -28 -5 -36 1 -7 -2 -10 -8 -7 -5 4 -12 2 -15 -3 -3 -5 8 -14 24 -20 31 -10 39 -4 19 16 -7 7 -3 9 15 6 33 -7 34 13 1 21 -14 4 -25 10 -25 15 0 5 16 1 35 -7 40 -18 43 -27 16 -41 -13 -7 -17 -18 -14 -36 7 -32 23 -33 23 -1 0 26 31 41 48 24 6 -6 12 -6 16 1 4 6 15 11 24 11 12 -1 8 -5 -10 -16 -17 -8 -25 -20 -22 -28 3 -8 1 -23 -5 -34 -9 -18 -5 -21 51 -37 50 -14 62 -14 69 -3 12 18 11 48 -2 48 -5 0 -7 -5 -4 -10 8 -14 -14 -42 -27 -34 -5 3 -4 12 3 20 9 10 9 14 0 14 -6 0 -14 -7 -17 -15 -10 -24 -26 -17 -18 8 6 21 6 22 -14 4 -13 -12 -22 -15 -27 -8 -3 6 -1 11 5 11 6 0 9 4 6 9 -9 14 4 41 20 41 8 0 14 7 14 15 0 9 7 26 15 39 13 20 13 25 2 35 -11 9 -17 8 -28 -5 -9 -11 -10 -17 -1 -23 7 -4 -1 -12 -20 -20 -24 -11 -33 -11 -36 -3 -2 7 -8 9 -14 6 -6 -4 -8 1 -4 13 5 16 0 23 -21 31 -59 22 -62 22 -69 -1z"/>
 <path d="M1047 786 c-23 -17 -10 -27 66 -50 45 -13 56 -20 48 -30 -6 -7 -7 -16 -3 -20 4 -4 -5 -5 -21 -1 -29 8 -39 -8 -11 -19 30 -12 42 -6 49 24 4 16 12 28 18 27 7 -1 12 5 12 13 0 16 -82 49 -104 42 -8 -3 -11 0 -7 6 3 5 -1 13 -10 16 -19 7 -15 8 -37 -8z"/>
 <path d="M1015 750 c-3 -5 3 -10 14 -10 20 0 37 -17 27 -27 -3 -3 -12 0 -20 6 -10 8 -16 9 -21 1 -3 -5 2 -10 12 -10 17 -1 17 -2 -1 -15 -17 -13 -18 -15 -3 -15 9 0 17 5 17 11 0 5 5 7 10 4 6 -3 14 4 19 17 7 18 4 25 -17 35 -29 16 -29 16 -37 3z"/>
 <path d="M775 730 c3 -6 -2 -13 -12 -17 -15 -6 -13 -8 12 -14 17 -4 38 -10 48 -14 10 -4 17 -3 17 4 0 6 -9 11 -19 11 -11 0 -23 5 -26 10 -3 6 -1 10 4 10 6 0 11 5 11 10 0 6 -9 10 -21 10 -11 0 -17 -5 -14 -10z"/>
 <path d="M820 720 c0 -10 26 -20 34 -13 11 12 6 19 -14 20 -11 1 -20 -2 -20 -7z"/>
 <path d="M1205 708 c-28 -32 -29 -55 -3 -61 26 -7 24 -9 32 23 7 24 6 24 -8 6 -18 -22 -30 -17 -20 8 4 10 15 16 28 14 20 -3 21 -7 9 -50 -3 -10 0 -18 6 -18 6 0 11 7 11 15 0 8 5 15 11 15 5 0 7 4 4 10 -3 5 -1 18 4 29 9 15 7 20 -9 24 -13 3 -18 1 -14 -6 5 -8 2 -7 -7 1 -18 16 -21 16 -44 -10z"/>
 <path d="M1120 710 c0 -5 7 -10 15 -10 8 0 15 5 15 10 0 6 -7 10 -15 10 -8 0 -15 -4 -15 -10z"/>
 <path d="M900 680 c0 -24 15 -27 24 -4 9 22 8 24 -9 24 -8 0 -15 -9 -15 -20z"/>
 <path d="M1319 688 c-1 -7 -1 -17 0 -22 1 -5 -5 -6 -13 -3 -18 7 -40 -18 -32 -38 6 -18 5 -18 -30 -5 -21 8 -29 8 -36 -2 -13 -22 -9 -38 9 -31 11 4 14 3 9 -5 -10 -17 10 -15 28 3 8 8 19 15 24 15 15 0 64 49 58 59 -4 5 3 7 14 4 25 -7 26 5 3 23 -23 17 -33 17 -34 2z"/>
 <path d="M1076 634 c-8 -21 -5 -24 36 -34 18 -4 40 -11 49 -14 12 -5 19 1 27 23 7 19 7 31 1 31 -5 0 -9 -4 -9 -10 0 -5 -5 -10 -11 -10 -6 0 -9 7 -5 15 3 8 2 15 -3 15 -5 0 -11 -9 -14 -20 -3 -11 -11 -20 -19 -20 -10 0 -9 3 2 10 13 9 13 10 0 10 -9 0 -22 -6 -29 -12 -11 -11 -12 -9 -6 10 7 25 -10 31 -19 6z"/>
 <path d="M618 576 c-3 -17 -1 -23 8 -19 7 2 12 13 11 24 -2 27 -14 24 -19 -5z"/>
 <path d="M696 584 c-3 -8 -11 -12 -17 -8 -8 4 -9 3 -5 -4 4 -7 3 -12 -3 -12 -5 0 -12 6 -14 13 -4 9 -6 9 -6 -1 -1 -16 -26 -43 -34 -36 -2 3 -7 -1 -10 -9 -4 -10 1 -13 16 -10 12 2 141 -21 287 -51 l265 -54 3 26 c2 15 -1 28 -7 30 -6 2 -9 8 -5 13 3 5 -3 9 -13 10 -10 0 -30 3 -45 5 -16 3 -32 -2 -42 -11 -9 -9 -16 -15 -17 -13 -7 31 -6 35 14 30 12 -3 18 -1 14 5 -4 6 -26 14 -49 18 -24 5 -52 10 -63 13 -11 2 -46 3 -77 3 -48 -2 -57 1 -52 14 5 11 2 14 -10 9 -9 -4 -16 -1 -16 6 0 8 -11 11 -30 8 -18 -3 -35 1 -41 9 -15 18 -36 16 -43 -3z m44 -43 c0 -4 -10 -8 -22 -8 -19 -2 -20 0 -8 8 11 8 6 9 -20 5 -31 -6 -33 -5 -15 8 14 10 25 11 42 3 13 -6 23 -13 23 -16z m70 -16 c-11 -13 -34 -9 -58 10 -1 1 14 2 34 3 30 1 34 -1 24 -13z m136 4 c3 -6 15 -9 25 -6 11 3 17 1 14 -3 -3 -5 -29 -7 -58 -5 -72 5 -75 6 -47 15 37 12 58 11 66 -1z m217 -85 c-4 -12 -8 -12 -13 -4 -4 7 -12 10 -18 6 -6 -4 -8 2 -5 14 4 16 9 18 24 10 11 -6 16 -16 12 -26z"/>
 <path d="M631 422 c-26 -117 -44 -269 -36 -307 7 -37 8 -38 15 -15 7 23 8 23 9 4 1 -21 7 -22 124 -28 130 -7 331 -10 359 -5 25 3 32 38 44 200 6 94 -4 119 -49 119 -12 0 -87 13 -167 29 -80 16 -170 32 -200 36 -30 4 -63 9 -72 10 -13 3 -19 -8 -27 -43z m345 -85 c10 -12 20 -29 21 -37 1 -8 5 -28 9 -44 5 -19 3 -27 -3 -23 -6 4 -13 -2 -16 -13 -3 -14 1 -24 15 -31 28 -15 16 -22 -17 -9 -21 8 -25 13 -16 23 8 10 -2 20 -45 43 -47 25 -56 27 -64 14 -15 -24 -12 -30 20 -41 31 -11 41 -29 15 -29 -8 0 -15 -4 -15 -10 0 -5 9 -6 22 -1 15 5 33 3 55 -8 39 -19 40 -24 8 -39 -37 -17 -65 -15 -65 5 0 9 -3 13 -7 10 -9 -10 -33 13 -33 33 0 9 -9 25 -20 35 -40 36 -21 75 35 75 23 0 53 26 42 37 -9 8 12 33 27 33 7 0 21 -10 32 -23z m-57 -108 c18 -11 31 -23 27 -26 -7 -7 -76 28 -76 39 0 13 13 9 49 -13z"/>
 <path d="M1163 135 c0 -33 2 -45 4 -27 2 18 2 45 0 60 -2 15 -4 0 -4 -33z"/>
 </g>

</svg>