<?xml version="1.0" encoding="iso-8859-1"?>
<!-- Generator: Adobe Illustrator 19.0.0, SVG Export Plug-In . SVG Version: 6.00 Build 0)  -->
<svg version="1.1" id="Capa_1" xmlns="http://www.w3.org/2000/svg" xmlns:xlink="http://www.w3.org/1999/xlink" x="0px" y="0px"
	 viewBox="0 0 512 512" style="enable-background:new 0 0 512 512;" xml:space="preserve">
<g>
	
		<linearGradient id="SVGID_1_" gradientUnits="userSpaceOnUse" x1="19.1122" y1="612.7109" x2="-45.7358" y2="612.7109" gradientTransform="matrix(8.5333 0 0 -8.5333 369.1334 5433.2671)">
		<stop  offset="0" style="stop-color:#4761AC"/>
		<stop  offset="1" style="stop-color:#54C2EF"/>
	</linearGradient>
	<path style="fill:url(#SVGID_1_);" d="M59.733,247.467H128c4.71,0,8.533-3.823,8.533-8.533v-68.267c0-4.71-3.823-8.533-8.533-8.533
		H59.733c-4.71,0-8.533,3.823-8.533,8.533v68.267C51.2,243.644,55.023,247.467,59.733,247.467z M68.267,179.2h51.2v51.2h-51.2V179.2
		z"/>
	
		<linearGradient id="SVGID_2_" gradientUnits="userSpaceOnUse" x1="19.1122" y1="612.7109" x2="-45.7358" y2="612.7109" gradientTransform="matrix(8.5333 0 0 -8.5333 369.1334 5433.2671)">
		<stop  offset="0" style="stop-color:#4761AC"/>
		<stop  offset="1" style="stop-color:#54C2EF"/>
	</linearGradient>
	<path style="fill:url(#SVGID_2_);" d="M384,247.467h68.267c4.71,0,8.533-3.823,8.533-8.533v-68.267c0-4.71-3.823-8.533-8.533-8.533
		H384c-4.71,0-8.533,3.823-8.533,8.533v68.267C375.467,243.644,379.29,247.467,384,247.467z M392.533,179.2h51.2v51.2h-51.2V179.2z"
		/>
	
		<linearGradient id="SVGID_3_" gradientUnits="userSpaceOnUse" x1="19.1122" y1="631.7109" x2="-45.7358" y2="631.7109" gradientTransform="matrix(8.5333 0 0 -8.5333 369.1334 5433.2671)">
		<stop  offset="0" style="stop-color:#4761AC"/>
		<stop  offset="1" style="stop-color:#54C2EF"/>
	</linearGradient>
	<path style="fill:url(#SVGID_3_);" d="M221.867,85.333h68.267c4.71,0,8.533-3.823,8.533-8.533V8.533
		c0-4.71-3.823-8.533-8.533-8.533h-68.267c-4.71,0-8.533,3.823-8.533,8.533V76.8C213.333,81.51,217.156,85.333,221.867,85.333z
		 M230.4,17.067h51.2v51.2h-51.2V17.067z"/>
	
		<linearGradient id="SVGID_4_" gradientUnits="userSpaceOnUse" x1="19.1122" y1="631.7109" x2="-45.7358" y2="631.7109" gradientTransform="matrix(8.5333 0 0 -8.5333 369.1334 5433.2671)">
		<stop  offset="0" style="stop-color:#4761AC"/>
		<stop  offset="1" style="stop-color:#54C2EF"/>
	</linearGradient>
	<path style="fill:url(#SVGID_4_);" d="M59.733,85.333H128c4.71,0,8.533-3.823,8.533-8.533V8.533C136.533,3.823,132.71,0,128,0
		H59.733C55.023,0,51.2,3.823,51.2,8.533V76.8C51.2,81.51,55.023,85.333,59.733,85.333z M68.267,17.067h51.2v51.2h-51.2V17.067z"/>
	
		<linearGradient id="SVGID_5_" gradientUnits="userSpaceOnUse" x1="19.1122" y1="631.7109" x2="-45.7358" y2="631.7109" gradientTransform="matrix(8.5333 0 0 -8.5333 369.1334 5433.2671)">
		<stop  offset="0" style="stop-color:#4761AC"/>
		<stop  offset="1" style="stop-color:#54C2EF"/>
	</linearGradient>
	<path style="fill:url(#SVGID_5_);" d="M384,85.333h68.267c4.71,0,8.533-3.823,8.533-8.533V8.533c0-4.71-3.823-8.533-8.533-8.533
		H384c-4.71,0-8.533,3.823-8.533,8.533V76.8C375.467,81.51,379.29,85.333,384,85.333z M392.533,17.067h51.2v51.2h-51.2V17.067z"/>
	
		<linearGradient id="SVGID_6_" gradientUnits="userSpaceOnUse" x1="19.1122" y1="593.7109" x2="-45.7358" y2="593.7109" gradientTransform="matrix(8.5333 0 0 -8.5333 369.1334 5433.2671)">
		<stop  offset="0" style="stop-color:#4761AC"/>
		<stop  offset="1" style="stop-color:#54C2EF"/>
	</linearGradient>
	<path style="fill:url(#SVGID_6_);" d="M59.733,409.6H128c4.71,0,8.533-3.823,8.533-8.533V332.8c0-4.71-3.823-8.533-8.533-8.533
		H59.733c-4.71,0-8.533,3.823-8.533,8.533v68.267C51.2,405.777,55.023,409.6,59.733,409.6z M68.267,341.333h51.2v51.2h-51.2V341.333
		z"/>
	
		<linearGradient id="SVGID_7_" gradientUnits="userSpaceOnUse" x1="19.1122" y1="593.7109" x2="-45.7358" y2="593.7109" gradientTransform="matrix(8.5333 0 0 -8.5333 369.1334 5433.2671)">
		<stop  offset="0" style="stop-color:#4761AC"/>
		<stop  offset="1" style="stop-color:#54C2EF"/>
	</linearGradient>
	<path style="fill:url(#SVGID_7_);" d="M384,409.6h68.267c4.71,0,8.533-3.823,8.533-8.533V332.8c0-4.71-3.823-8.533-8.533-8.533H384
		c-4.71,0-8.533,3.823-8.533,8.533v68.267C375.467,405.777,379.29,409.6,384,409.6z M392.533,341.333h51.2v51.2h-51.2V341.333z"/>
	
		<linearGradient id="SVGID_8_" gradientUnits="userSpaceOnUse" x1="19.1122" y1="582.7109" x2="-45.7358" y2="582.7109" gradientTransform="matrix(8.5333 0 0 -8.5333 369.1334 5433.2671)">
		<stop  offset="0" style="stop-color:#4761AC"/>
		<stop  offset="1" style="stop-color:#54C2EF"/>
	</linearGradient>
	<rect x="307.2" y="452.267" style="fill:url(#SVGID_8_);" width="17.067" height="17.067"/>
	
		<linearGradient id="SVGID_9_" gradientUnits="userSpaceOnUse" x1="19.1122" y1="583.7109" x2="-45.7358" y2="583.7109" gradientTransform="matrix(8.5333 0 0 -8.5333 369.1334 5433.2671)">
		<stop  offset="0" style="stop-color:#4761AC"/>
		<stop  offset="1" style="stop-color:#54C2EF"/>
	</linearGradient>
	<rect x="51.2" y="443.733" style="fill:url(#SVGID_9_);" width="17.067" height="17.067"/>
	
		<linearGradient id="SVGID_10_" gradientUnits="userSpaceOnUse" x1="19.1122" y1="583.7109" x2="-45.7358" y2="583.7109" gradientTransform="matrix(8.5333 0 0 -8.5333 369.1334 5433.2671)">
		<stop  offset="0" style="stop-color:#4761AC"/>
		<stop  offset="1" style="stop-color:#54C2EF"/>
	</linearGradient>
	<rect x="85.333" y="443.733" style="fill:url(#SVGID_10_);" width="17.067" height="17.067"/>
	
		<linearGradient id="SVGID_11_" gradientUnits="userSpaceOnUse" x1="19.1122" y1="583.7109" x2="-45.7358" y2="583.7109" gradientTransform="matrix(8.5333 0 0 -8.5333 369.1334 5433.2671)">
		<stop  offset="0" style="stop-color:#4761AC"/>
		<stop  offset="1" style="stop-color:#54C2EF"/>
	</linearGradient>
	<rect x="119.467" y="443.733" style="fill:url(#SVGID_11_);" width="17.067" height="17.067"/>
	
		<linearGradient id="SVGID_12_" gradientUnits="userSpaceOnUse" x1="19.1122" y1="579.7109" x2="-45.7358" y2="579.7109" gradientTransform="matrix(8.5333 0 0 -8.5333 369.1334 5433.2671)">
		<stop  offset="0" style="stop-color:#4761AC"/>
		<stop  offset="1" style="stop-color:#54C2EF"/>
	</linearGradient>
	<rect x="51.2" y="477.867" style="fill:url(#SVGID_12_);" width="17.067" height="17.067"/>
	
		<linearGradient id="SVGID_13_" gradientUnits="userSpaceOnUse" x1="19.1122" y1="579.7109" x2="-45.7358" y2="579.7109" gradientTransform="matrix(8.5333 0 0 -8.5333 369.1334 5433.2671)">
		<stop  offset="0" style="stop-color:#4761AC"/>
		<stop  offset="1" style="stop-color:#54C2EF"/>
	</linearGradient>
	<rect x="85.333" y="477.867" style="fill:url(#SVGID_13_);" width="17.067" height="17.067"/>
	
		<linearGradient id="SVGID_14_" gradientUnits="userSpaceOnUse" x1="19.1122" y1="579.7109" x2="-45.7358" y2="579.7109" gradientTransform="matrix(8.5333 0 0 -8.5333 369.1334 5433.2671)">
		<stop  offset="0" style="stop-color:#4761AC"/>
		<stop  offset="1" style="stop-color:#54C2EF"/>
	</linearGradient>
	<rect x="119.467" y="477.867" style="fill:url(#SVGID_14_);" width="17.067" height="17.067"/>
	
		<linearGradient id="SVGID_15_" gradientUnits="userSpaceOnUse" x1="19.1122" y1="598.7109" x2="-45.7358" y2="598.7109" gradientTransform="matrix(8.5333 0 0 -8.5333 369.1334 5433.2671)">
		<stop  offset="0" style="stop-color:#4761AC"/>
		<stop  offset="1" style="stop-color:#54C2EF"/>
	</linearGradient>
	<path style="fill:url(#SVGID_15_);" d="M221.867,421.666v81.801c0,4.71,3.823,8.533,8.533,8.533h119.467
		c4.71,0,8.533-3.823,8.533-8.533V315.733c0-4.71-3.823-8.533-8.533-8.533h-59.733v-34.133h25.6c4.71,0,8.533-3.823,8.533-8.533
		V145.067c0-4.71-3.823-8.533-8.533-8.533H196.267c-4.71,0-8.533,3.823-8.533,8.533v119.467c0,4.71,3.823,8.533,8.533,8.533h25.6
		v73.267L202.3,326.767c-1.596-1.604-3.772-2.5-6.033-2.5H179.2c-4.71,0-8.533,3.823-8.533,8.533v34.133
		c0,2.261,0.896,4.437,2.5,6.033L221.867,421.666z M341.333,494.933h-102.4v-68.267h102.4V494.933z M204.8,256V153.6h102.4V256
		h-17.067v-76.8c0-4.71-3.823-8.533-8.533-8.533h-51.2c-4.71,0-8.533,3.823-8.533,8.533V256H204.8z M187.733,341.333h5.001
		l31.633,31.633c3.337,3.328,8.738,3.328,12.066,0c1.604-1.604,2.5-3.772,2.5-6.033v-179.2h34.133v128
		c0,4.71,3.823,8.533,8.533,8.533h59.733V409.6H233.933l-46.199-46.199V341.333z"/>
</g>
<g>
</g>
<g>
</g>
<g>
</g>
<g>
</g>
<g>
</g>
<g>
</g>
<g>
</g>
<g>
</g>
<g>
</g>
<g>
</g>
<g>
</g>
<g>
</g>
<g>
</g>
<g>
</g>
<g>
</g>
</svg>
