<?xml version="1.0"?>
<svg xmlns="http://www.w3.org/2000/svg" xmlns:xlink="http://www.w3.org/1999/xlink" viewBox="0 0 64 64" width="512" height="512"><defs><linearGradient id="linear-gradient" y1="37" x2="65.276" y2="37" gradientUnits="userSpaceOnUse"><stop offset="0" stop-color="#fc4a1a"/><stop offset="1" stop-color="#f7b733"/></linearGradient><linearGradient id="linear-gradient-2" y1="32" x2="65.276" y2="32" xlink:href="#linear-gradient"/><linearGradient id="linear-gradient-3" y1="34" x2="65.276" y2="34" xlink:href="#linear-gradient"/><linearGradient id="linear-gradient-4" y1="38" x2="65.276" y2="38" xlink:href="#linear-gradient"/><linearGradient id="linear-gradient-5" y1="42" x2="65.276" y2="42" xlink:href="#linear-gradient"/><linearGradient id="linear-gradient-6" y1="46" x2="65.276" y2="46" xlink:href="#linear-gradient"/><linearGradient id="linear-gradient-7" y1="10" x2="65.276" y2="10" xlink:href="#linear-gradient"/><linearGradient id="linear-gradient-9" y1="20" x2="65.276" y2="20" xlink:href="#linear-gradient"/><linearGradient id="linear-gradient-11" y1="30" x2="65.276" y2="30" xlink:href="#linear-gradient"/><linearGradient id="linear-gradient-13" y1="40" x2="65.276" y2="40" xlink:href="#linear-gradient"/><linearGradient id="linear-gradient-15" y1="48" x2="65.276" y2="48" xlink:href="#linear-gradient"/></defs><g id="Gradient_outline" data-name="Gradient outline"><path d="M5,29V61a1,1,0,0,0,1,1H30a1,1,0,0,0,1-1V29a1,1,0,0,0-1-1H28V25a1,1,0,0,0-1-1H26V21a1,1,0,0,0-1-1H24V17a1,1,0,0,0-1-1H19V13a1,1,0,0,0-2,0v3H13a1,1,0,0,0-1,1v3H11a1,1,0,0,0-1,1v3H9a1,1,0,0,0-1,1v3H6A1,1,0,0,0,5,29ZM21,60H15V54h6ZM14,18h8v2H14Zm-2,4H24v2H12Zm-2,4H26v2H10ZM7,30H29V60H23V53a1,1,0,0,0-1-1H14a1,1,0,0,0-1,1v7H7Z" style="fill:url(#linear-gradient)"/><path d="M59,61V3a1,1,0,0,0-1-1H34a1,1,0,0,0-1,1V61a1,1,0,0,0,1,1H58A1,1,0,0,0,59,61Zm-8-1H41V54H51Zm6,0H53V53a1,1,0,0,0-1-1H40a1,1,0,0,0-1,1v7H35V4H57Z" style="fill:url(#linear-gradient-2)"/><rect x="11" y="33" width="14" height="2" style="fill:url(#linear-gradient-3)"/><rect x="11" y="37" width="14" height="2" style="fill:url(#linear-gradient-4)"/><rect x="11" y="41" width="14" height="2" style="fill:url(#linear-gradient-5)"/><rect x="11" y="45" width="14" height="2" style="fill:url(#linear-gradient-6)"/><path d="M38,14h6a1,1,0,0,0,1-1V7a1,1,0,0,0-1-1H38a1,1,0,0,0-1,1v6A1,1,0,0,0,38,14Zm1-6h4v4H39Z" style="fill:url(#linear-gradient-7)"/><path d="M48,14h6a1,1,0,0,0,1-1V7a1,1,0,0,0-1-1H48a1,1,0,0,0-1,1v6A1,1,0,0,0,48,14Zm1-6h4v4H49Z" style="fill:url(#linear-gradient-7)"/><path d="M38,24h6a1,1,0,0,0,1-1V17a1,1,0,0,0-1-1H38a1,1,0,0,0-1,1v6A1,1,0,0,0,38,24Zm1-6h4v4H39Z" style="fill:url(#linear-gradient-9)"/><path d="M48,24h6a1,1,0,0,0,1-1V17a1,1,0,0,0-1-1H48a1,1,0,0,0-1,1v6A1,1,0,0,0,48,24Zm1-6h4v4H49Z" style="fill:url(#linear-gradient-9)"/><path d="M38,34h6a1,1,0,0,0,1-1V27a1,1,0,0,0-1-1H38a1,1,0,0,0-1,1v6A1,1,0,0,0,38,34Zm1-6h4v4H39Z" style="fill:url(#linear-gradient-11)"/><path d="M48,34h6a1,1,0,0,0,1-1V27a1,1,0,0,0-1-1H48a1,1,0,0,0-1,1v6A1,1,0,0,0,48,34Zm1-6h4v4H49Z" style="fill:url(#linear-gradient-11)"/><path d="M38,44h6a1,1,0,0,0,1-1V37a1,1,0,0,0-1-1H38a1,1,0,0,0-1,1v6A1,1,0,0,0,38,44Zm1-6h4v4H39Z" style="fill:url(#linear-gradient-13)"/><path d="M48,44h6a1,1,0,0,0,1-1V37a1,1,0,0,0-1-1H48a1,1,0,0,0-1,1v6A1,1,0,0,0,48,44Zm1-6h4v4H49Z" style="fill:url(#linear-gradient-13)"/><rect x="45" y="47" width="2" height="2" style="fill:url(#linear-gradient-15)"/><rect x="49" y="47" width="2" height="2" style="fill:url(#linear-gradient-15)"/><rect x="41" y="47" width="2" height="2" style="fill:url(#linear-gradient-15)"/></g></svg>
