<svg height="512" viewBox="0 0 64 64" width="512" xmlns="http://www.w3.org/2000/svg" xmlns:xlink="http://www.w3.org/1999/xlink"><linearGradient id="linear-gradient" gradientUnits="userSpaceOnUse" x1="-1" x2="61.169" y1="32" y2="32"><stop offset="0" stop-color="#2dced9"/><stop offset=".155" stop-color="#45cdc4"/><stop offset=".484" stop-color="#83ca8d"/><stop offset=".956" stop-color="#e5c636"/><stop offset="1" stop-color="#efc62d"/></linearGradient><linearGradient id="linear-gradient-2" x2="61.169" xlink:href="#linear-gradient" y1="47" y2="47"/><g id="Gradient_outline" data-name="Gradient outline"><path d="m40 28.414 6.707-6.707a1 1 0 0 0 .273-.9l-2.98-14.907v-2.9a1 1 0 0 0 -1-1h-14a1 1 0 0 0 -1 1v2.586l-2.414 2.414h-2.586a4 4 0 0 0 -3.313 6.239 3.978 3.978 0 0 0 .313 7.619v20.142h-18v10h2v10h56v-10h2v-10h-22zm-13-19 2.707-2.707a1 1 0 0 0 .293-.707v-2h12v2a1 1 0 0 0 .02.2l2.894 14.475-4.914 4.911v-3.586h2v-2h-3a1 1 0 0 0 -1 1v9a2 2 0 0 1 -4 0v-9c0-.028-.022-.165-.03-.206a1.022 1.022 0 0 0 -.061-.187 1.009 1.009 0 0 0 -.05-.105 1.882 1.882 0 0 0 -.2-.245.978.978 0 0 0 -.269-.176l-6.39-2.74zm-1 20.586v-4h6v3.382l-7.447 3.718a1 1 0 0 0 -.553.9v5a1 1 0 0 0 1 1h10v-2h-9v-3.382l6.289-3.144a4 4 0 0 0 3.711 2.526 3.959 3.959 0 0 0 2-.556v8.556h-16v-20h10v2h-7a1 1 0 0 0 -1 1v5zm-3-20h2v4h-2a2 2 0 0 1 0-4zm-4 8a2 2 0 0 1 2-2h4v2a1 1 0 0 0 .606.919l2.522 1.081h-7.128a2 2 0 0 1 -2-2zm31 42h-36v-4h36zm8 0h-6v-6h-40v6h-6v-8h52zm2-16v6h-56v-6z" fill="url(#linear-gradient)"/><g fill="url(#linear-gradient-2)"><path d="m6 46h2v2h-2z"/><path d="m10 46h2v2h-2z"/></g></g></svg>