<?xml version="1.0" encoding="iso-8859-1"?>
<!-- Generator: Adobe Illustrator 19.0.0, SVG Export Plug-In . SVG Version: 6.00 Build 0)  -->
<svg version="1.1" id="Capa_1" xmlns="http://www.w3.org/2000/svg" xmlns:xlink="http://www.w3.org/1999/xlink" x="0px" y="0px"
	 viewBox="0 0 480 480" style="enable-background:new 0 0 480 480;" xml:space="preserve">
<linearGradient id="SVGID_1_" gradientUnits="userSpaceOnUse" x1="-58.815" y1="605.6234" x2="5.325" y2="605.6234" gradientTransform="matrix(8 0 0 -8 455 4941)">
	<stop  offset="0" style="stop-color:#00A2CC"/>
	<stop  offset="1" style="stop-color:#2B32B2"/>
</linearGradient>
<path style="fill:url(#SVGID_1_);" d="M144,142.528V184c0,4.418,3.582,8,8,8h24c4.418,0,8-3.582,8-8s-3.582-8-8-8h-16v-32h18.104
	c8.778,34.184,43.605,54.78,77.79,46.002c22.576-5.797,40.205-23.426,46.002-46.002H328c13.255,0,24-10.745,24-24v-16
	c0-13.255-10.745-24-24-24h-8V48c-0.026-26.499-21.501-47.974-48-48h-64c-26.499,0.026-47.974,21.501-48,48v32h-8
	c-13.255,0-24,10.745-24,24v16C128.042,130.134,134.445,139.15,144,142.528z M288,128c0,26.51-21.49,48-48,48s-48-21.49-48-48v-6.4
	l96-26.664V128z M192,105.032V80c0-17.673,14.327-32,32-32h32c2.131,0,4.256,0.215,6.344,0.64c0.688,0.144,1.32,0.416,1.984,0.6
	c1.338,0.32,2.653,0.729,3.936,1.224c0.76,0.312,1.44,0.8,2.168,1.136c1.098,0.518,2.167,1.098,3.2,1.736
	c0.728,0.48,1.352,1.08,2.032,1.6c0.927,0.682,1.816,1.414,2.664,2.192c0.64,0.624,1.168,1.344,1.752,2.016
	c0.763,0.828,1.481,1.696,2.152,2.6c0.512,0.744,0.92,1.56,1.376,2.352c0.587,0.951,1.121,1.934,1.6,2.944
	c0.376,0.848,0.632,1.752,0.936,2.632c0.394,1.047,0.728,2.115,1,3.2c0.216,0.928,0.296,1.888,0.424,2.84s0.224,1.76,0.272,2.656
	L192,105.032z M328,96c4.418,0,8,3.582,8,8v16c0,4.418-3.582,8-8,8h-24V96H328z M176,48c0-17.673,14.327-32,32-32h64
	c17.673,0,32,14.327,32,32v32c-0.026-26.499-21.501-47.974-48-48h-32c-26.499,0.026-47.974,21.501-48,48V48z M144,104
	c0-4.418,3.582-8,8-8h24v32h-24c-4.418,0-8-3.582-8-8V104z"/>
<g>
	
		<linearGradient id="SVGID_2_" gradientUnits="userSpaceOnUse" x1="-58.815" y1="574.625" x2="5.325" y2="574.625" gradientTransform="matrix(8 0 0 -8 455 4941)">
		<stop  offset="0" style="stop-color:#00A2CC"/>
		<stop  offset="1" style="stop-color:#2B32B2"/>
	</linearGradient>
	<path style="fill:url(#SVGID_2_);" d="M472,432H352V320c0-61.856-50.144-112-112-112s-112,50.144-112,112v112h-16v-72
		c0-4.418-3.582-8-8-8H8c-4.418,0-8,3.582-8,8v112c0,4.418,3.582,8,8,8h464c4.418,0,8-3.582,8-8v-32
		C480,435.582,476.418,432,472,432z M144,320c0-53.019,42.981-96,96-96s96,42.981,96,96v112H144V320z M16,368h80v64H16V368z
		 M464,464H16v-16h448V464z"/>
	
		<linearGradient id="SVGID_3_" gradientUnits="userSpaceOnUse" x1="-58.815" y1="584.625" x2="5.325" y2="584.625" gradientTransform="matrix(8 0 0 -8 455 4941)">
		<stop  offset="0" style="stop-color:#00A2CC"/>
		<stop  offset="1" style="stop-color:#2B32B2"/>
	</linearGradient>
	<path style="fill:url(#SVGID_3_);" d="M240,240c-13.255,0-24,10.745-24,24s10.745,24,24,24c13.255,0,24-10.745,24-24
		S253.255,240,240,240z M240,272c-4.418,0-8-3.582-8-8s3.582-8,8-8s8,3.582,8,8S244.418,272,240,272z"/>
	
		<linearGradient id="SVGID_4_" gradientUnits="userSpaceOnUse" x1="-58.815" y1="576.625" x2="5.325" y2="576.625" gradientTransform="matrix(8 0 0 -8 455 4941)">
		<stop  offset="0" style="stop-color:#00A2CC"/>
		<stop  offset="1" style="stop-color:#2B32B2"/>
	</linearGradient>
	<path style="fill:url(#SVGID_4_);" d="M240,304c-13.255,0-24,10.745-24,24s10.745,24,24,24c13.255,0,24-10.745,24-24
		S253.255,304,240,304z M240,336c-4.418,0-8-3.582-8-8s3.582-8,8-8s8,3.582,8,8S244.418,336,240,336z"/>
</g>
<g>
</g>
<g>
</g>
<g>
</g>
<g>
</g>
<g>
</g>
<g>
</g>
<g>
</g>
<g>
</g>
<g>
</g>
<g>
</g>
<g>
</g>
<g>
</g>
<g>
</g>
<g>
</g>
<g>
</g>
</svg>
