<svg height="480pt" viewBox="0 0 480 480.11987" width="480pt" xmlns="http://www.w3.org/2000/svg" xmlns:xlink="http://www.w3.org/1999/xlink"><linearGradient id="a"><stop offset="0" stop-color="#20d6de"/><stop offset="1" stop-color="#5e309d"/></linearGradient><linearGradient id="b" gradientUnits="userSpaceOnUse" x1=".059935" x2="497.667935" xlink:href="#a" y1="200" y2="200"/><linearGradient id="c" gradientUnits="userSpaceOnUse" x1=".059935" x2="497.667935" xlink:href="#a" y1="176" y2="176"/><linearGradient id="d" gradientUnits="userSpaceOnUse" x1=".059935" x2="497.667935" xlink:href="#a" y1="144" y2="144"/><linearGradient id="e" gradientUnits="userSpaceOnUse" x1=".059935" x2="497.667935" xlink:href="#a" y1="96" y2="96"/><linearGradient id="f" gradientUnits="userSpaceOnUse" x1=".059935" x2="497.667935" xlink:href="#a" y1="128" y2="128"/><linearGradient id="g" gradientUnits="userSpaceOnUse" x1=".059935" x2="497.667935" xlink:href="#a" y1="240" y2="240"/><linearGradient id="h" gradientUnits="userSpaceOnUse" x1=".059935" x2="497.667935" xlink:href="#a" y1="336" y2="336"/><path d="m424.058594 296h-24v-120c0-4.417969-3.582032-8-8-8h-32c-4.417969 0-8 3.582031-8 8v120h-32v-152c0-4.417969-3.582032-8-8-8h-32c-4.417969 0-8 3.582031-8 8v152h-32v-104c0-4.417969-3.582032-8-8-8h-32c-4.417969 0-8 3.582031-8 8v104h-32v-72c0-4.417969-3.582032-8-8-8h-32c-4.417969 0-8 3.582031-8 8v72h-32v-200c0-4.417969-3.582032-8-8-8-4.417969 0-8 3.582031-8 8v16h-16v16h16v32h-16v16h16v32h-16v16h16v32h-16v16h16v32c0 4.417969 3.582031 8 8 8h352c4.417968 0 8-3.582031 8-8s-3.582032-8-8-8zm-40-112v48h-16v-48zm-80-32v40h-16v-40zm-80 48v64h-16v-64zm-80 32v16h-16v-16zm-16 64v-32h16v32zm80 0v-16h16v16zm80 0v-88h16v88zm80 0v-48h16v48zm0 0" fill="url(#b)"/><path d="m136.058594 200c13.257812 0 24-10.746094 24-24s-10.742188-24-24-24c-13.253906 0-24 10.746094-24 24s10.746094 24 24 24zm0-32c4.417968 0 8 3.582031 8 8s-3.582032 8-8 8c-4.417969 0-8-3.582031-8-8s3.582031-8 8-8zm0 0" fill="url(#c)"/><path d="m216.058594 168c13.257812 0 24-10.746094 24-24s-10.742188-24-24-24c-13.253906 0-24 10.746094-24 24s10.746094 24 24 24zm0-32c4.417968 0 8 3.582031 8 8s-3.582032 8-8 8c-4.417969 0-8-3.582031-8-8s3.582031-8 8-8zm0 0" fill="url(#d)"/><path d="m296.058594 120c13.257812 0 24-10.746094 24-24s-10.742188-24-24-24c-13.253906 0-24 10.746094-24 24s10.746094 24 24 24zm0-32c4.417968 0 8 3.582031 8 8s-3.582032 8-8 8c-4.417969 0-8-3.582031-8-8s3.582031-8 8-8zm0 0" fill="url(#e)"/><path d="m376.058594 152c13.257812 0 24-10.746094 24-24s-10.742188-24-24-24c-13.253906 0-24 10.746094-24 24s10.746094 24 24 24zm0-32c4.417968 0 8 3.582031 8 8s-3.582032 8-8 8c-4.417969 0-8-3.582031-8-8s3.582031-8 8-8zm0 0" fill="url(#f)"/><path d="m472.058594 0h-464c-4.417969 0-8.0000002 3.582031-8.0000002 8v24c.0468752 10.8125 7.3203122 20.261719 17.7617182 23.070312-1.152343 2.835938-1.75 5.867188-1.761718 8.929688v288c0 13.253906 10.746094 24 24 24h192v41.136719c-15.601563 4.027343-25.773438 19.03125-23.742188 35.015625 2.027344 15.984375 15.628906 27.96875 31.742188 27.96875 16.117187 0 29.714844-11.984375 31.746094-27.96875s-8.140626-30.988282-23.746094-35.015625v-41.136719h192c13.257812 0 24-10.746094 24-24v-288c-.007813-3.0625-.605469-6.09375-1.757813-8.929688 10.441407-2.808593 17.714844-12.257812 17.757813-23.070312v-24c0-4.417969-3.582032-8-8-8zm-216 448c0 8.835938-7.160156 16-16 16-8.835938 0-16-7.164062-16-16s7.164062-16 16-16c8.839844 0 16 7.164062 16 16zm192-96c0 4.417969-3.582032 8-8 8h-400c-4.417969 0-8-3.582031-8-8v-288c0-4.417969 3.582031-8 8-8h400c4.417968 0 8 3.582031 8 8zm16-320c0 4.417969-3.582032 8-8 8h-432c-4.417969 0-8-3.582031-8-8v-16h448zm0 0" fill="url(#g)"/><g fill="url(#h)"><path d="m160.058594 328h-48c-4.417969 0-8 3.582031-8 8s3.582031 8 8 8h48c4.417968 0 8-3.582031 8-8s-3.582032-8-8-8zm0 0"/><path d="m240.058594 328h-48c-4.417969 0-8 3.582031-8 8s3.582031 8 8 8h48c4.417968 0 8-3.582031 8-8s-3.582032-8-8-8zm0 0"/><path d="m320.058594 328h-48c-4.417969 0-8 3.582031-8 8s3.582031 8 8 8h48c4.417968 0 8-3.582031 8-8s-3.582032-8-8-8zm0 0"/><path d="m400.058594 328h-48c-4.417969 0-8 3.582031-8 8s3.582031 8 8 8h48c4.417968 0 8-3.582031 8-8s-3.582032-8-8-8zm0 0"/></g></svg>