<?xml version="1.0"?>
<svg xmlns="http://www.w3.org/2000/svg" xmlns:xlink="http://www.w3.org/1999/xlink" viewBox="0 0 64 64" width="512" height="512"><defs><linearGradient id="linear-gradient" x1="1" y1="32" x2="63.008" y2="32" gradientUnits="userSpaceOnUse"><stop offset="0" stop-color="#84aa50"/><stop offset="1" stop-color="#00acc9"/></linearGradient><linearGradient id="linear-gradient-2" y1="34" x2="63.008" y2="34" xlink:href="#linear-gradient"/><linearGradient id="linear-gradient-3" y1="17" x2="63.008" y2="17" xlink:href="#linear-gradient"/><linearGradient id="linear-gradient-4" y1="21" x2="63.008" y2="21" xlink:href="#linear-gradient"/><linearGradient id="linear-gradient-5" y1="25" x2="63.008" y2="25" xlink:href="#linear-gradient"/><linearGradient id="linear-gradient-6" y1="29" x2="63.008" y2="29" xlink:href="#linear-gradient"/><linearGradient id="linear-gradient-7" y1="33" x2="63.008" y2="33" xlink:href="#linear-gradient"/><linearGradient id="linear-gradient-8" y1="43.146" x2="63.008" y2="43.146" xlink:href="#linear-gradient"/><linearGradient id="linear-gradient-9" y1="41" x2="63.008" y2="41" xlink:href="#linear-gradient"/><linearGradient id="linear-gradient-10" y1="45" x2="63.008" y2="45" xlink:href="#linear-gradient"/></defs><g id="Gradient_outline" data-name="Gradient outline"><path d="M45,2H15a1,1,0,0,0-.707.293l-10,10A1,1,0,0,0,4,13V61a1,1,0,0,0,1,1H45a1,1,0,0,0,1-1V3A1,1,0,0,0,45,2ZM14,5.414V12H7.414ZM44,60H6V14h9a1,1,0,0,0,1-1V4H44Z" style="fill:url(#linear-gradient)"/><path d="M59,11H49a1,1,0,0,0-1,1V48a1.828,1.828,0,0,0,.063.352l3,8a1,1,0,0,0,1.874,0l3-8A1.828,1.828,0,0,0,56,48V13h2V23h2V12A1,1,0,0,0,59,11Zm-9,2h4v2H50Zm0,22h4v8H50Zm2,18.152L50.443,49h3.114ZM54,47H50V45h4ZM50,33V17h4V33Z" style="fill:url(#linear-gradient-2)"/><rect x="18" y="16" width="14" height="2" style="fill:url(#linear-gradient-3)"/><rect x="12" y="20" width="26" height="2" style="fill:url(#linear-gradient-4)"/><rect x="12" y="24" width="26" height="2" style="fill:url(#linear-gradient-5)"/><rect x="12" y="28" width="26" height="2" style="fill:url(#linear-gradient-6)"/><rect x="12" y="32" width="26" height="2" style="fill:url(#linear-gradient-7)"/><path d="M37.293,36.293,35.586,38H24V50H36V40.414l2.707-2.707ZM34,48H26V40h7.586L30,43.586l-1.293-1.293-1.414,1.414L30,46.414l4-4Z" style="fill:url(#linear-gradient-8)"/><rect x="12" y="40" width="8" height="2" style="fill:url(#linear-gradient-9)"/><rect x="12" y="44" width="4" height="2" style="fill:url(#linear-gradient-10)"/><rect x="18" y="44" width="2" height="2" style="fill:url(#linear-gradient-10)"/></g></svg>
