<?xml version="1.0" encoding="iso-8859-1"?>
<!-- Generator: Adobe Illustrator 19.0.0, SVG Export Plug-In . SVG Version: 6.00 Build 0)  -->
<svg version="1.1" id="Capa_1" xmlns="http://www.w3.org/2000/svg" xmlns:xlink="http://www.w3.org/1999/xlink" x="0px" y="0px"
	 viewBox="0 0 480.022 480.022" style="enable-background:new 0 0 480.022 480.022;" xml:space="preserve">
<linearGradient id="SVGID_1_" gradientUnits="userSpaceOnUse" x1="-59.097" y1="603.6431" x2="5.625" y2="603.6431" gradientTransform="matrix(8 0 0 -8 455 4941.1558)">
	<stop  offset="0" style="stop-color:#00A2CC"/>
	<stop  offset="1" style="stop-color:#2B32B2"/>
</linearGradient>
<path style="fill:url(#SVGID_1_);" d="M8,176.017h62.552l-6.44,38.688c-0.718,4.36,2.235,8.476,6.594,9.193
	c2.325,0.383,4.701-0.279,6.494-1.809l53.76-46.072H184c22.08-0.026,39.974-17.92,40-40v-96c-0.026-22.08-17.92-39.974-40-40H40
	c-22.08,0.026-39.974,17.92-40,40v128C0,172.436,3.582,176.017,8,176.017z M16,40.017c0-13.255,10.745-24,24-24h144
	c13.255,0,24,10.745,24,24v96c0,13.255-10.745,24-24,24h-56c-1.909-0.002-3.754,0.682-5.2,1.928l-39.296,33.664l4.384-26.28
	c0.725-4.358-2.221-8.479-6.58-9.204c-0.432-0.072-0.87-0.108-1.308-0.108H16V40.017z"/>
<g>
	
		<linearGradient id="SVGID_2_" gradientUnits="userSpaceOnUse" x1="-59.097" y1="571.6431" x2="5.625" y2="571.6431" gradientTransform="matrix(8 0 0 -8 455 4941.1558)">
		<stop  offset="0" style="stop-color:#00A2CC"/>
		<stop  offset="1" style="stop-color:#2B32B2"/>
	</linearGradient>
	<path style="fill:url(#SVGID_2_);" d="M64,432.017h6.552l-6.44,38.688c-0.718,4.36,2.235,8.476,6.594,9.193
		c2.325,0.383,4.701-0.279,6.494-1.809l53.76-46.072H160c35.33-0.04,63.96-28.67,64-64v-48c-0.04-35.33-28.67-63.96-64-64H64
		c-35.33,0.04-63.96,28.67-64,64v48C0.04,403.347,28.67,431.978,64,432.017z M16,320.017c0.026-26.499,21.501-47.974,48-48h96
		c26.499,0.026,47.974,21.501,48,48v48c-0.026,26.499-21.501,47.974-48,48h-32c-1.909-0.002-3.754,0.682-5.2,1.928l-39.296,33.664
		l4.384-26.28c0.725-4.358-2.221-8.479-6.58-9.204c-0.432-0.072-0.87-0.108-1.308-0.108H64c-26.499-0.026-47.974-21.501-48-48
		V320.017z"/>
	
		<linearGradient id="SVGID_3_" gradientUnits="userSpaceOnUse" x1="-59.097" y1="583.6423" x2="5.625" y2="583.6423" gradientTransform="matrix(8 0 0 -8 455 4941.1558)">
		<stop  offset="0" style="stop-color:#00A2CC"/>
		<stop  offset="1" style="stop-color:#2B32B2"/>
	</linearGradient>
	<path style="fill:url(#SVGID_3_);" d="M456,152.017H280c-13.255,0-24,10.745-24,24v128c0,13.255,10.745,24,24,24h112v40
		c-0.003,3.752,2.602,7.002,6.264,7.816l72,16c0.571,0.12,1.153,0.181,1.736,0.184c4.418,0.012,8.01-3.559,8.022-7.978
		c0.01-3.769-2.612-7.035-6.294-7.838L408,361.617v-33.6h48c13.255,0,24-10.745,24-24v-128C480,162.762,469.255,152.017,456,152.017
		L456,152.017z M464,304.017c0,4.418-3.582,8-8,8H280c-4.418,0-8-3.582-8-8v-128c0-4.418,3.582-8,8-8h176c4.418,0,8,3.582,8,8
		V304.017z"/>
	
		<linearGradient id="SVGID_4_" gradientUnits="userSpaceOnUse" x1="-59.097" y1="574.6423" x2="5.625" y2="574.6423" gradientTransform="matrix(8 0 0 -8 455 4941.1558)">
		<stop  offset="0" style="stop-color:#00A2CC"/>
		<stop  offset="1" style="stop-color:#2B32B2"/>
	</linearGradient>
	<path style="fill:url(#SVGID_4_);" d="M40,336.017h16v16H40V336.017z"/>
	
		<linearGradient id="SVGID_5_" gradientUnits="userSpaceOnUse" x1="-59.097" y1="574.6423" x2="5.625" y2="574.6423" gradientTransform="matrix(8 0 0 -8 455 4941.1558)">
		<stop  offset="0" style="stop-color:#00A2CC"/>
		<stop  offset="1" style="stop-color:#2B32B2"/>
	</linearGradient>
	<path style="fill:url(#SVGID_5_);" d="M72,336.017h16v16H72V336.017z"/>
	
		<linearGradient id="SVGID_6_" gradientUnits="userSpaceOnUse" x1="-59.097" y1="574.6423" x2="5.625" y2="574.6423" gradientTransform="matrix(8 0 0 -8 455 4941.1558)">
		<stop  offset="0" style="stop-color:#00A2CC"/>
		<stop  offset="1" style="stop-color:#2B32B2"/>
	</linearGradient>
	<path style="fill:url(#SVGID_6_);" d="M104,336.017h16v16h-16V336.017z"/>
	
		<linearGradient id="SVGID_7_" gradientUnits="userSpaceOnUse" x1="-59.097" y1="574.6423" x2="5.625" y2="574.6423" gradientTransform="matrix(8 0 0 -8 455 4941.1558)">
		<stop  offset="0" style="stop-color:#00A2CC"/>
		<stop  offset="1" style="stop-color:#2B32B2"/>
	</linearGradient>
	<path style="fill:url(#SVGID_7_);" d="M136,336.017h16v16h-16V336.017z"/>
	
		<linearGradient id="SVGID_8_" gradientUnits="userSpaceOnUse" x1="-59.097" y1="574.6423" x2="5.625" y2="574.6423" gradientTransform="matrix(8 0 0 -8 455 4941.1558)">
		<stop  offset="0" style="stop-color:#00A2CC"/>
		<stop  offset="1" style="stop-color:#2B32B2"/>
	</linearGradient>
	<path style="fill:url(#SVGID_8_);" d="M168,336.017h16v16h-16V336.017z"/>
	
		<linearGradient id="SVGID_9_" gradientUnits="userSpaceOnUse" x1="-59.097" y1="587.6423" x2="5.625" y2="587.6423" gradientTransform="matrix(8 0 0 -8 455 4941.1558)">
		<stop  offset="0" style="stop-color:#00A2CC"/>
		<stop  offset="1" style="stop-color:#2B32B2"/>
	</linearGradient>
	<path style="fill:url(#SVGID_9_);" d="M296,232.017h16v16h-16V232.017z"/>
	
		<linearGradient id="SVGID_10_" gradientUnits="userSpaceOnUse" x1="-59.097" y1="587.6423" x2="5.625" y2="587.6423" gradientTransform="matrix(8 0 0 -8 455 4941.1558)">
		<stop  offset="0" style="stop-color:#00A2CC"/>
		<stop  offset="1" style="stop-color:#2B32B2"/>
	</linearGradient>
	<path style="fill:url(#SVGID_10_);" d="M328,232.017h16v16h-16V232.017z"/>
	
		<linearGradient id="SVGID_11_" gradientUnits="userSpaceOnUse" x1="-59.097" y1="587.6423" x2="5.625" y2="587.6423" gradientTransform="matrix(8 0 0 -8 455 4941.1558)">
		<stop  offset="0" style="stop-color:#00A2CC"/>
		<stop  offset="1" style="stop-color:#2B32B2"/>
	</linearGradient>
	<path style="fill:url(#SVGID_11_);" d="M360,232.017h16v16h-16V232.017z"/>
	
		<linearGradient id="SVGID_12_" gradientUnits="userSpaceOnUse" x1="-59.097" y1="587.6423" x2="5.625" y2="587.6423" gradientTransform="matrix(8 0 0 -8 455 4941.1558)">
		<stop  offset="0" style="stop-color:#00A2CC"/>
		<stop  offset="1" style="stop-color:#2B32B2"/>
	</linearGradient>
	<path style="fill:url(#SVGID_12_);" d="M392,232.017h16v16h-16V232.017z"/>
	
		<linearGradient id="SVGID_13_" gradientUnits="userSpaceOnUse" x1="-59.097" y1="587.6423" x2="5.625" y2="587.6423" gradientTransform="matrix(8 0 0 -8 455 4941.1558)">
		<stop  offset="0" style="stop-color:#00A2CC"/>
		<stop  offset="1" style="stop-color:#2B32B2"/>
	</linearGradient>
	<path style="fill:url(#SVGID_13_);" d="M424,232.017h16v16h-16V232.017z"/>
	
		<linearGradient id="SVGID_14_" gradientUnits="userSpaceOnUse" x1="-59.097" y1="610.6423" x2="5.625" y2="610.6423" gradientTransform="matrix(8 0 0 -8 455 4941.1558)">
		<stop  offset="0" style="stop-color:#00A2CC"/>
		<stop  offset="1" style="stop-color:#2B32B2"/>
	</linearGradient>
	<path style="fill:url(#SVGID_14_);" d="M40,64.017h144c4.418,0,8-3.582,8-8s-3.582-8-8-8H40c-4.418,0-8,3.582-8,8
		S35.582,64.017,40,64.017z"/>
	
		<linearGradient id="SVGID_15_" gradientUnits="userSpaceOnUse" x1="-59.097" y1="606.6423" x2="5.625" y2="606.6423" gradientTransform="matrix(8 0 0 -8 455 4941.1558)">
		<stop  offset="0" style="stop-color:#00A2CC"/>
		<stop  offset="1" style="stop-color:#2B32B2"/>
	</linearGradient>
	<path style="fill:url(#SVGID_15_);" d="M40,96.017h144c4.418,0,8-3.582,8-8s-3.582-8-8-8H40c-4.418,0-8,3.582-8,8
		S35.582,96.017,40,96.017z"/>
	
		<linearGradient id="SVGID_16_" gradientUnits="userSpaceOnUse" x1="-59.097" y1="602.6423" x2="5.625" y2="602.6423" gradientTransform="matrix(8 0 0 -8 455 4941.1558)">
		<stop  offset="0" style="stop-color:#00A2CC"/>
		<stop  offset="1" style="stop-color:#2B32B2"/>
	</linearGradient>
	<path style="fill:url(#SVGID_16_);" d="M192,120.017c0-4.418-3.582-8-8-8H40c-4.418,0-8,3.582-8,8s3.582,8,8,8h144
		C188.418,128.017,192,124.436,192,120.017z"/>
</g>
<g>
</g>
<g>
</g>
<g>
</g>
<g>
</g>
<g>
</g>
<g>
</g>
<g>
</g>
<g>
</g>
<g>
</g>
<g>
</g>
<g>
</g>
<g>
</g>
<g>
</g>
<g>
</g>
<g>
</g>
</svg>
